<svg xmlns="http://www.w3.org/2000/svg" xmlns:xlink="http://www.w3.org/1999/xlink" version="1.1" width="256" height="256" viewBox="0 0 256 256" xml:space="preserve">

<defs>
</defs>
<g style="stroke: none; stroke-width: 0; stroke-dasharray: none; stroke-linecap: butt; stroke-linejoin: miter; stroke-miterlimit: 10; fill: none; fill-rule: nonzero; opacity: 1;" transform="translate(1.4065934065934016 1.4065934065934016) scale(2.81 2.81)" >
	<circle cx="24.962" cy="84.932" r="3.602" style="stroke: none; stroke-width: 1; stroke-dasharray: none; stroke-linecap: butt; stroke-linejoin: miter; stroke-miterlimit: 10; fill: rgb(123,216,247); fill-rule: nonzero; opacity: 1;" transform="  matrix(1 0 0 1 0 0) "/>
	<circle cx="45.001999999999995" cy="84.932" r="3.602" style="stroke: none; stroke-width: 1; stroke-dasharray: none; stroke-linecap: butt; stroke-linejoin: miter; stroke-miterlimit: 10; fill: rgb(123,216,247); fill-rule: nonzero; opacity: 1;" transform="  matrix(1 0 0 1 0 0) "/>
	<circle cx="65.002" cy="84.932" r="3.602" style="stroke: none; stroke-width: 1; stroke-dasharray: none; stroke-linecap: butt; stroke-linejoin: miter; stroke-miterlimit: 10; fill: rgb(123,216,247); fill-rule: nonzero; opacity: 1;" transform="  matrix(1 0 0 1 0 0) "/>
	<path d="M 10.265 25.49 c -0.033 -0.502 -0.056 -1.006 -0.056 -1.516 c 0 -12.432 10.078 -22.509 22.509 -22.509 c 8.993 0 16.752 5.276 20.357 12.9 c 2.715 -1.928 6.025 -3.072 9.609 -3.072 c 8.291 0 15.145 6.074 16.405 14.01 C 84.799 26.865 89 32.075 89 38.28 c 0 7.438 -6.03 13.468 -13.468 13.468 H 14.468 C 7.03 51.748 1 45.718 1 38.28 C 1 32.31 4.887 27.256 10.265 25.49 z" style="stroke: none; stroke-width: 1; stroke-dasharray: none; stroke-linecap: butt; stroke-linejoin: miter; stroke-miterlimit: 10; fill: rgb(67,144,179); fill-rule: nonzero; opacity: 1;" transform=" matrix(1 0 0 1 0 0) " stroke-linecap="round" />
	<path d="M 75.532 52.747 H 14.468 C 6.49 52.747 0 46.257 0 38.28 c 0 -6.004 3.677 -11.328 9.227 -13.48 c -0.011 -0.274 -0.018 -0.549 -0.018 -0.826 c 0 -12.963 10.546 -23.509 23.509 -23.509 c 8.661 0 16.68 4.848 20.744 12.445 c 2.779 -1.716 5.945 -2.617 9.223 -2.617 c 8.5 0 15.67 5.945 17.282 14.228 C 85.905 26.432 90 32 90 38.28 C 90 46.257 83.51 52.747 75.532 52.747 z M 32.718 2.464 c -11.86 0 -21.509 9.649 -21.509 21.509 c 0 0.488 0.022 0.97 0.054 1.45 c 0.03 0.456 -0.252 0.874 -0.686 1.016 C 5.447 28.125 2 32.883 2 38.28 c 0 6.875 5.593 12.467 12.468 12.467 h 61.064 C 82.407 50.747 88 45.154 88 38.28 c 0 -5.595 -3.772 -10.535 -9.174 -12.013 c -0.379 -0.104 -0.662 -0.419 -0.724 -0.808 c -1.211 -7.629 -7.695 -13.167 -15.418 -13.167 c -3.246 0 -6.369 0.999 -9.03 2.888 c -0.242 0.171 -0.548 0.226 -0.832 0.152 c -0.286 -0.075 -0.524 -0.272 -0.651 -0.54 C 48.63 7.303 40.994 2.464 32.718 2.464 z" style="stroke: none; stroke-width: 1; stroke-dasharray: none; stroke-linecap: butt; stroke-linejoin: miter; stroke-miterlimit: 10; fill: rgb(0,0,0); fill-rule: nonzero; opacity: 1;" transform=" matrix(1 0 0 1 0 0) " stroke-linecap="round" />
	<path d="M 65 76.934 c -0.553 0 -1 -0.447 -1 -1 V 60.6 c 0 -0.553 0.447 -1 1 -1 s 1 0.447 1 1 v 15.334 C 66 76.486 65.553 76.934 65 76.934 z" style="stroke: none; stroke-width: 1; stroke-dasharray: none; stroke-linecap: butt; stroke-linejoin: miter; stroke-miterlimit: 10; fill: rgb(0,0,0); fill-rule: nonzero; opacity: 1;" transform=" matrix(1 0 0 1 0 0) " stroke-linecap="round" />
	<path d="M 55 80.934 c -0.553 0 -1 -0.447 -1 -1 V 70.6 c 0 -0.553 0.447 -1 1 -1 s 1 0.447 1 1 v 9.334 C 56 80.486 55.553 80.934 55 80.934 z" style="stroke: none; stroke-width: 1; stroke-dasharray: none; stroke-linecap: butt; stroke-linejoin: miter; stroke-miterlimit: 10; fill: rgb(0,0,0); fill-rule: nonzero; opacity: 1;" transform=" matrix(1 0 0 1 0 0) " stroke-linecap="round" />
	<path d="M 45 76.934 c -0.552 0 -1 -0.447 -1 -1 V 60.6 c 0 -0.553 0.448 -1 1 -1 s 1 0.447 1 1 v 15.334 C 46 76.486 45.552 76.934 45 76.934 z" style="stroke: none; stroke-width: 1; stroke-dasharray: none; stroke-linecap: butt; stroke-linejoin: miter; stroke-miterlimit: 10; fill: rgb(0,0,0); fill-rule: nonzero; opacity: 1;" transform=" matrix(1 0 0 1 0 0) " stroke-linecap="round" />
	<path d="M 35 80.934 c -0.552 0 -1 -0.447 -1 -1 V 70.6 c 0 -0.553 0.448 -1 1 -1 s 1 0.447 1 1 v 9.334 C 36 80.486 35.552 80.934 35 80.934 z" style="stroke: none; stroke-width: 1; stroke-dasharray: none; stroke-linecap: butt; stroke-linejoin: miter; stroke-miterlimit: 10; fill: rgb(0,0,0); fill-rule: nonzero; opacity: 1;" transform=" matrix(1 0 0 1 0 0) " stroke-linecap="round" />
	<path d="M 25 76.934 c -0.552 0 -1 -0.447 -1 -1 V 60.6 c 0 -0.553 0.448 -1 1 -1 s 1 0.447 1 1 v 15.334 C 26 76.486 25.552 76.934 25 76.934 z" style="stroke: none; stroke-width: 1; stroke-dasharray: none; stroke-linecap: butt; stroke-linejoin: miter; stroke-miterlimit: 10; fill: rgb(0,0,0); fill-rule: nonzero; opacity: 1;" transform=" matrix(1 0 0 1 0 0) " stroke-linecap="round" />
	<path d="M 24.958 89.535 c -2.538 0 -4.602 -2.064 -4.602 -4.602 c 0 -2.538 2.064 -4.603 4.602 -4.603 s 4.602 2.064 4.602 4.603 C 29.561 87.471 27.496 89.535 24.958 89.535 z M 24.958 82.331 c -1.435 0 -2.602 1.168 -2.602 2.603 s 1.167 2.602 2.602 2.602 s 2.602 -1.167 2.602 -2.602 S 26.393 82.331 24.958 82.331 z" style="stroke: none; stroke-width: 1; stroke-dasharray: none; stroke-linecap: butt; stroke-linejoin: miter; stroke-miterlimit: 10; fill: rgb(0,0,0); fill-rule: nonzero; opacity: 1;" transform=" matrix(1 0 0 1 0 0) " stroke-linecap="round" />
	<path d="M 45 89.535 c -2.538 0 -4.602 -2.064 -4.602 -4.602 c 0 -2.538 2.064 -4.603 4.602 -4.603 c 2.538 0 4.603 2.064 4.603 4.603 C 49.603 87.471 47.538 89.535 45 89.535 z M 45 82.331 c -1.435 0 -2.602 1.168 -2.602 2.603 s 1.167 2.602 2.602 2.602 s 2.603 -1.167 2.603 -2.602 S 46.435 82.331 45 82.331 z" style="stroke: none; stroke-width: 1; stroke-dasharray: none; stroke-linecap: butt; stroke-linejoin: miter; stroke-miterlimit: 10; fill: rgb(0,0,0); fill-rule: nonzero; opacity: 1;" transform=" matrix(1 0 0 1 0 0) " stroke-linecap="round" />
	<path d="M 65 89.535 c -2.538 0 -4.603 -2.064 -4.603 -4.602 c 0 -2.538 2.064 -4.603 4.603 -4.603 s 4.603 2.064 4.603 4.603 C 69.603 87.471 67.538 89.535 65 89.535 z M 65 82.331 c -1.435 0 -2.603 1.168 -2.603 2.603 s 1.168 2.602 2.603 2.602 s 2.603 -1.167 2.603 -2.602 S 66.435 82.331 65 82.331 z" style="stroke: none; stroke-width: 1; stroke-dasharray: none; stroke-linecap: butt; stroke-linejoin: miter; stroke-miterlimit: 10; fill: rgb(0,0,0); fill-rule: nonzero; opacity: 1;" transform=" matrix(1 0 0 1 0 0) " stroke-linecap="round" />
</g>
</svg>