<svg xmlns="http://www.w3.org/2000/svg" xmlns:xlink="http://www.w3.org/1999/xlink" version="1.1" width="256" height="256" viewBox="0 0 256 256" xml:space="preserve">

<defs>
</defs>
<g style="stroke: none; stroke-width: 0; stroke-dasharray: none; stroke-linecap: butt; stroke-linejoin: miter; stroke-miterlimit: 10; fill: none; fill-rule: nonzero; opacity: 1;" transform="translate(1.4065934065934016 1.4065934065934016) scale(2.81 2.81)" >
	<circle cx="6.901999999999999" cy="83.572" r="3.602" style="stroke: none; stroke-width: 1; stroke-dasharray: none; stroke-linecap: butt; stroke-linejoin: miter; stroke-miterlimit: 10; fill: rgb(123,216,247); fill-rule: nonzero; opacity: 1;" transform="  matrix(1 0 0 1 0 0) "/>
	<path d="M 6.897 88.17 c -2.538 0 -4.602 -2.064 -4.602 -4.603 s 2.064 -4.603 4.602 -4.603 s 4.602 2.064 4.602 4.603 S 9.435 88.17 6.897 88.17 z M 6.897 80.965 c -1.435 0 -2.602 1.168 -2.602 2.603 s 1.167 2.603 2.602 2.603 s 2.602 -1.168 2.602 -2.603 S 8.332 80.965 6.897 80.965 z" style="stroke: none; stroke-width: 1; stroke-dasharray: none; stroke-linecap: butt; stroke-linejoin: miter; stroke-miterlimit: 10; fill: rgb(0,0,0); fill-rule: nonzero; opacity: 1;" transform=" matrix(1 0 0 1 0 0) " stroke-linecap="round" />
	<path d="M 10.265 25.791 c -0.033 -0.502 -0.056 -1.006 -0.056 -1.516 c 0 -12.432 10.078 -22.509 22.509 -22.509 c 8.993 0 16.752 5.276 20.357 12.9 c 2.715 -1.928 6.025 -3.072 9.609 -3.072 c 8.291 0 15.145 6.074 16.405 14.01 C 84.799 27.166 89 32.376 89 38.581 c 0 7.438 -6.03 13.468 -13.468 13.468 H 14.468 C 7.03 52.049 1 46.019 1 38.581 C 1 32.612 4.887 27.557 10.265 25.791 z" style="stroke: none; stroke-width: 1; stroke-dasharray: none; stroke-linecap: butt; stroke-linejoin: miter; stroke-miterlimit: 10; fill: rgb(67,144,179); fill-rule: nonzero; opacity: 1;" transform=" matrix(1 0 0 1 0 0) " stroke-linecap="round" />
	<path d="M 75.532 53.049 H 14.468 C 6.49 53.049 0 46.559 0 38.581 c 0 -6.004 3.677 -11.328 9.227 -13.48 c -0.011 -0.274 -0.018 -0.549 -0.018 -0.826 c 0 -12.963 10.546 -23.509 23.509 -23.509 c 8.661 0 16.68 4.848 20.744 12.445 c 2.78 -1.716 5.945 -2.617 9.223 -2.617 c 8.5 0 15.67 5.945 17.282 14.228 C 85.905 26.733 90 32.301 90 38.581 C 90 46.559 83.51 53.049 75.532 53.049 z M 32.718 2.766 c -11.86 0 -21.509 9.649 -21.509 21.509 c 0 0.488 0.022 0.97 0.054 1.45 c 0.03 0.456 -0.252 0.874 -0.686 1.016 C 5.447 28.426 2 33.185 2 38.581 c 0 6.875 5.593 12.468 12.468 12.468 h 61.064 C 82.407 51.049 88 45.456 88 38.581 c 0 -5.595 -3.772 -10.535 -9.174 -12.013 c -0.379 -0.104 -0.662 -0.419 -0.724 -0.808 c -1.211 -7.629 -7.695 -13.167 -15.418 -13.167 c -3.246 0 -6.369 0.999 -9.03 2.888 c -0.242 0.171 -0.548 0.227 -0.832 0.152 c -0.286 -0.075 -0.524 -0.272 -0.651 -0.54 C 48.63 7.604 40.994 2.766 32.718 2.766 z" style="stroke: none; stroke-width: 1; stroke-dasharray: none; stroke-linecap: butt; stroke-linejoin: miter; stroke-miterlimit: 10; fill: rgb(0,0,0); fill-rule: nonzero; opacity: 1;" transform=" matrix(1 0 0 1 0 0) " stroke-linecap="round" />
	<path d="M 9.902 75.852 c -0.108 0 -0.218 -0.018 -0.326 -0.055 c -0.522 -0.18 -0.799 -0.749 -0.619 -1.271 l 4.81 -13.951 c 0.179 -0.521 0.746 -0.801 1.271 -0.619 c 0.522 0.18 0.799 0.749 0.619 1.271 l -4.81 13.951 C 10.705 75.592 10.317 75.852 9.902 75.852 z" style="stroke: none; stroke-width: 1; stroke-dasharray: none; stroke-linecap: butt; stroke-linejoin: miter; stroke-miterlimit: 10; fill: rgb(0,0,0); fill-rule: nonzero; opacity: 1;" transform=" matrix(1 0 0 1 0 0) " stroke-linecap="round" />
	<path d="M 18.046 81.234 c -0.108 0 -0.218 -0.018 -0.326 -0.055 c -0.522 -0.18 -0.799 -0.749 -0.619 -1.271 l 3.218 -9.334 c 0.179 -0.522 0.744 -0.802 1.271 -0.619 c 0.522 0.18 0.799 0.749 0.619 1.271 l -3.218 9.334 C 18.849 80.975 18.461 81.234 18.046 81.234 z" style="stroke: none; stroke-width: 1; stroke-dasharray: none; stroke-linecap: butt; stroke-linejoin: miter; stroke-miterlimit: 10; fill: rgb(0,0,0); fill-rule: nonzero; opacity: 1;" transform=" matrix(1 0 0 1 0 0) " stroke-linecap="round" />
	<path d="M 29.902 75.852 c -0.108 0 -0.218 -0.018 -0.326 -0.055 c -0.522 -0.18 -0.799 -0.749 -0.619 -1.271 l 4.81 -13.951 c 0.179 -0.521 0.746 -0.801 1.271 -0.619 c 0.522 0.18 0.799 0.749 0.619 1.271 l -4.81 13.951 C 30.705 75.592 30.317 75.852 29.902 75.852 z" style="stroke: none; stroke-width: 1; stroke-dasharray: none; stroke-linecap: butt; stroke-linejoin: miter; stroke-miterlimit: 10; fill: rgb(0,0,0); fill-rule: nonzero; opacity: 1;" transform=" matrix(1 0 0 1 0 0) " stroke-linecap="round" />
	<path d="M 38.046 81.234 c -0.108 0 -0.218 -0.018 -0.326 -0.055 c -0.522 -0.18 -0.799 -0.749 -0.619 -1.271 l 3.218 -9.334 c 0.179 -0.522 0.744 -0.802 1.271 -0.619 c 0.522 0.18 0.799 0.749 0.619 1.271 l -3.218 9.334 C 38.849 80.975 38.461 81.234 38.046 81.234 z" style="stroke: none; stroke-width: 1; stroke-dasharray: none; stroke-linecap: butt; stroke-linejoin: miter; stroke-miterlimit: 10; fill: rgb(0,0,0); fill-rule: nonzero; opacity: 1;" transform=" matrix(1 0 0 1 0 0) " stroke-linecap="round" />
	<path d="M 49.902 75.852 c -0.108 0 -0.218 -0.018 -0.326 -0.055 c -0.521 -0.18 -0.799 -0.749 -0.619 -1.271 l 4.81 -13.951 c 0.18 -0.522 0.747 -0.798 1.271 -0.619 c 0.521 0.18 0.799 0.749 0.619 1.271 l -4.81 13.951 C 50.705 75.592 50.317 75.852 49.902 75.852 z" style="stroke: none; stroke-width: 1; stroke-dasharray: none; stroke-linecap: butt; stroke-linejoin: miter; stroke-miterlimit: 10; fill: rgb(0,0,0); fill-rule: nonzero; opacity: 1;" transform=" matrix(1 0 0 1 0 0) " stroke-linecap="round" />
	<path d="M 58.046 81.234 c -0.108 0 -0.218 -0.018 -0.326 -0.055 c -0.521 -0.18 -0.799 -0.749 -0.619 -1.271 l 3.219 -9.334 c 0.18 -0.521 0.747 -0.798 1.271 -0.619 c 0.521 0.18 0.799 0.749 0.619 1.271 l -3.219 9.334 C 58.849 80.975 58.461 81.234 58.046 81.234 z" style="stroke: none; stroke-width: 1; stroke-dasharray: none; stroke-linecap: butt; stroke-linejoin: miter; stroke-miterlimit: 10; fill: rgb(0,0,0); fill-rule: nonzero; opacity: 1;" transform=" matrix(1 0 0 1 0 0) " stroke-linecap="round" />
	<path d="M 69.902 75.852 c -0.108 0 -0.218 -0.018 -0.326 -0.055 c -0.521 -0.18 -0.799 -0.749 -0.619 -1.271 l 4.81 -13.951 c 0.18 -0.522 0.749 -0.798 1.271 -0.619 c 0.521 0.18 0.799 0.749 0.619 1.271 l -4.81 13.951 C 70.705 75.592 70.317 75.852 69.902 75.852 z" style="stroke: none; stroke-width: 1; stroke-dasharray: none; stroke-linecap: butt; stroke-linejoin: miter; stroke-miterlimit: 10; fill: rgb(0,0,0); fill-rule: nonzero; opacity: 1;" transform=" matrix(1 0 0 1 0 0) " stroke-linecap="round" />
	<circle cx="26.892" cy="83.572" r="3.602" style="stroke: none; stroke-width: 1; stroke-dasharray: none; stroke-linecap: butt; stroke-linejoin: miter; stroke-miterlimit: 10; fill: rgb(123,216,247); fill-rule: nonzero; opacity: 1;" transform="  matrix(1 0 0 1 0 0) "/>
	<path d="M 26.897 88.17 c -2.538 0 -4.602 -2.064 -4.602 -4.603 s 2.064 -4.603 4.602 -4.603 s 4.602 2.064 4.602 4.603 S 29.435 88.17 26.897 88.17 z M 26.897 80.965 c -1.435 0 -2.602 1.168 -2.602 2.603 s 1.167 2.603 2.602 2.603 s 2.602 -1.168 2.602 -2.603 S 28.332 80.965 26.897 80.965 z" style="stroke: none; stroke-width: 1; stroke-dasharray: none; stroke-linecap: butt; stroke-linejoin: miter; stroke-miterlimit: 10; fill: rgb(0,0,0); fill-rule: nonzero; opacity: 1;" transform=" matrix(1 0 0 1 0 0) " stroke-linecap="round" />
	<circle cx="46.901999999999994" cy="83.572" r="3.602" style="stroke: none; stroke-width: 1; stroke-dasharray: none; stroke-linecap: butt; stroke-linejoin: miter; stroke-miterlimit: 10; fill: rgb(123,216,247); fill-rule: nonzero; opacity: 1;" transform="  matrix(1 0 0 1 0 0) "/>
	<path d="M 46.896 88.17 c -2.537 0 -4.602 -2.064 -4.602 -4.603 s 2.064 -4.603 4.602 -4.603 c 2.538 0 4.603 2.064 4.603 4.603 S 49.435 88.17 46.896 88.17 z M 46.896 80.965 c -1.435 0 -2.602 1.168 -2.602 2.603 s 1.167 2.603 2.602 2.603 s 2.603 -1.168 2.603 -2.603 S 48.331 80.965 46.896 80.965 z" style="stroke: none; stroke-width: 1; stroke-dasharray: none; stroke-linecap: butt; stroke-linejoin: miter; stroke-miterlimit: 10; fill: rgb(0,0,0); fill-rule: nonzero; opacity: 1;" transform=" matrix(1 0 0 1 0 0) " stroke-linecap="round" />
	<circle cx="66.902" cy="83.572" r="3.602" style="stroke: none; stroke-width: 1; stroke-dasharray: none; stroke-linecap: butt; stroke-linejoin: miter; stroke-miterlimit: 10; fill: rgb(123,216,247); fill-rule: nonzero; opacity: 1;" transform="  matrix(1 0 0 1 0 0) "/>
	<path d="M 66.896 88.17 c -2.537 0 -4.602 -2.064 -4.602 -4.603 s 2.064 -4.603 4.602 -4.603 c 2.538 0 4.603 2.064 4.603 4.603 S 69.435 88.17 66.896 88.17 z M 66.896 80.965 c -1.435 0 -2.602 1.168 -2.602 2.603 s 1.167 2.603 2.602 2.603 s 2.603 -1.168 2.603 -2.603 S 68.331 80.965 66.896 80.965 z" style="stroke: none; stroke-width: 1; stroke-dasharray: none; stroke-linecap: butt; stroke-linejoin: miter; stroke-miterlimit: 10; fill: rgb(0,0,0); fill-rule: nonzero; opacity: 1;" transform=" matrix(1 0 0 1 0 0) " stroke-linecap="round" />
</g>
</svg>