<svg xmlns="http://www.w3.org/2000/svg" xmlns:xlink="http://www.w3.org/1999/xlink" version="1.1" width="256" height="256" viewBox="0 0 256 256" xml:space="preserve">

<defs>
</defs>
<g style="stroke: none; stroke-width: 0; stroke-dasharray: none; stroke-linecap: butt; stroke-linejoin: miter; stroke-miterlimit: 10; fill: none; fill-rule: nonzero; opacity: 1;" transform="translate(1.4065934065934016 1.4065934065934016) scale(2.81 2.81)" >
	<path d="M 75.271 25.747 c -6.603 3.388 -14.702 0.781 -18.09 -5.822 c -3.388 -6.603 -0.781 -14.702 5.822 -18.09 c 0.628 -0.322 1.273 -0.574 1.923 -0.789 c -3.106 -0.225 -6.312 0.372 -9.286 1.897 c -8.645 4.435 -12.058 15.038 -7.623 23.683 s 15.038 12.058 23.683 7.623 c 5.748 -2.949 9.179 -8.625 9.532 -14.639 C 80.009 22.162 77.984 24.355 75.271 25.747 z" style="stroke: none; stroke-width: 1; stroke-dasharray: none; stroke-linecap: butt; stroke-linejoin: miter; stroke-miterlimit: 10; fill: rgb(123,216,247); fill-rule: nonzero; opacity: 1;" transform=" matrix(1 0 0 1 0 0) " stroke-linecap="round" />
	<path d="M 63.692 37.198 c -1.916 0 -3.841 -0.3 -5.717 -0.903 c -4.728 -1.522 -8.579 -4.793 -10.846 -9.212 c -2.267 -4.419 -2.678 -9.456 -1.156 -14.183 s 4.793 -8.579 9.212 -10.846 C 58.22 0.497 61.612 -0.197 65 0.048 c 0.476 0.035 0.861 0.4 0.92 0.874 c 0.06 0.473 -0.225 0.922 -0.677 1.073 c -0.694 0.23 -1.261 0.462 -1.783 0.73 c -6.102 3.13 -8.519 10.642 -5.389 16.743 c 3.131 6.103 10.642 8.518 16.744 5.389 l 0 0 c 2.422 -1.243 4.33 -3.207 5.518 -5.681 c 0.206 -0.431 0.686 -0.656 1.152 -0.535 c 0.462 0.12 0.775 0.55 0.747 1.027 c -0.385 6.552 -4.245 12.48 -10.074 15.47 C 69.493 36.506 66.604 37.198 63.692 37.198 z M 60.345 2.338 c -1.468 0.301 -2.896 0.803 -4.247 1.495 c -3.943 2.023 -6.862 5.461 -8.22 9.68 c -1.358 4.219 -0.992 8.714 1.031 12.657 c 2.022 3.943 5.46 6.863 9.68 8.221 c 4.219 1.358 8.713 0.991 12.657 -1.031 c 3.839 -1.97 6.721 -5.368 8.105 -9.364 c -1.051 1.057 -2.268 1.946 -3.624 2.642 l 0 0 c -7.079 3.635 -15.801 0.828 -19.436 -6.255 C 53.063 14.086 54.92 6.5 60.345 2.338 z" style="stroke: none; stroke-width: 1; stroke-dasharray: none; stroke-linecap: butt; stroke-linejoin: miter; stroke-miterlimit: 10; fill: rgb(0,0,0); fill-rule: nonzero; opacity: 1;" transform=" matrix(1 0 0 1 0 0) " stroke-linecap="round" />
	<path d="M 15.973 40.922 c -0.028 -0.419 -0.047 -0.841 -0.047 -1.267 c 0 -10.389 8.422 -18.811 18.811 -18.811 c 7.516 0 13.999 4.409 17.012 10.78 c 2.269 -1.611 5.035 -2.567 8.03 -2.567 c 6.929 0 12.657 5.076 13.71 11.708 c 4.771 1.305 8.282 5.66 8.282 10.845 c 0 6.216 -5.039 11.255 -11.255 11.255 H 19.485 c -6.216 0 -11.255 -5.039 -11.255 -11.255 C 8.23 46.622 11.478 42.399 15.973 40.922 z" style="stroke: none; stroke-width: 1; stroke-dasharray: none; stroke-linecap: butt; stroke-linejoin: miter; stroke-miterlimit: 10; fill: rgb(67,144,179); fill-rule: nonzero; opacity: 1;" transform=" matrix(1 0 0 1 0 0) " stroke-linecap="round" />
	<path d="M 70.516 63.865 H 19.484 c -6.757 0 -12.254 -5.497 -12.254 -12.255 c 0 -5.047 3.066 -9.525 7.706 -11.375 c -0.006 -0.192 -0.01 -0.386 -0.01 -0.58 c 0 -10.923 8.887 -19.811 19.811 -19.811 c 7.24 0 13.948 4.021 17.397 10.334 c 2.313 -1.391 4.933 -2.121 7.645 -2.121 c 7.149 0 13.187 4.979 14.586 11.928 c 4.98 1.647 8.406 6.338 8.406 11.625 C 82.771 58.368 77.273 63.865 70.516 63.865 z M 34.736 21.845 c -9.821 0 -17.811 7.99 -17.811 17.811 c 0 0.404 0.019 0.803 0.045 1.201 c 0.03 0.456 -0.252 0.874 -0.686 1.017 c -4.22 1.386 -7.055 5.299 -7.055 9.738 c 0 5.654 4.6 10.255 10.254 10.255 h 51.031 c 5.654 0 10.255 -4.601 10.255 -10.255 c 0 -4.602 -3.104 -8.664 -7.546 -9.88 c -0.379 -0.104 -0.662 -0.419 -0.724 -0.808 c -1 -6.295 -6.351 -10.865 -12.723 -10.865 c -2.679 0 -5.255 0.824 -7.451 2.383 c -0.242 0.171 -0.548 0.226 -0.832 0.152 c -0.286 -0.075 -0.524 -0.272 -0.651 -0.54 C 47.912 25.852 41.589 21.845 34.736 21.845 z" style="stroke: none; stroke-width: 1; stroke-dasharray: none; stroke-linecap: butt; stroke-linejoin: miter; stroke-miterlimit: 10; fill: rgb(0,0,0); fill-rule: nonzero; opacity: 1;" transform=" matrix(1 0 0 1 0 0) " stroke-linecap="round" />
	<path d="M 24.71 77.755 c -0.346 0 -0.682 -0.179 -0.867 -0.5 l -4.4 -7.621 c -0.276 -0.479 -0.112 -1.09 0.366 -1.366 c 0.479 -0.276 1.089 -0.113 1.366 0.366 l 4.4 7.621 c 0.276 0.479 0.112 1.09 -0.366 1.366 C 25.052 77.712 24.88 77.755 24.71 77.755 z" style="stroke: none; stroke-width: 1; stroke-dasharray: none; stroke-linecap: butt; stroke-linejoin: miter; stroke-miterlimit: 10; fill: rgb(0,0,0); fill-rule: nonzero; opacity: 1;" transform=" matrix(1 0 0 1 0 0) " stroke-linecap="round" />
	<path d="M 20.309 77.755 c -0.169 0 -0.341 -0.043 -0.499 -0.134 c -0.479 -0.276 -0.642 -0.888 -0.366 -1.366 l 4.4 -7.621 c 0.276 -0.478 0.885 -0.643 1.366 -0.366 c 0.479 0.276 0.642 0.888 0.366 1.366 l -4.4 7.621 C 20.99 77.575 20.654 77.755 20.309 77.755 z" style="stroke: none; stroke-width: 1; stroke-dasharray: none; stroke-linecap: butt; stroke-linejoin: miter; stroke-miterlimit: 10; fill: rgb(0,0,0); fill-rule: nonzero; opacity: 1;" transform=" matrix(1 0 0 1 0 0) " stroke-linecap="round" />
	<path d="M 26.909 73.944 h -8.8 c -0.552 0 -1 -0.447 -1 -1 s 0.448 -1 1 -1 h 8.8 c 0.552 0 1 0.447 1 1 S 27.461 73.944 26.909 73.944 z" style="stroke: none; stroke-width: 1; stroke-dasharray: none; stroke-linecap: butt; stroke-linejoin: miter; stroke-miterlimit: 10; fill: rgb(0,0,0); fill-rule: nonzero; opacity: 1;" transform=" matrix(1 0 0 1 0 0) " stroke-linecap="round" />
	<path d="M 34.13 90 c -0.346 0 -0.682 -0.179 -0.867 -0.5 l -4.4 -7.621 c -0.276 -0.479 -0.112 -1.09 0.366 -1.366 c 0.479 -0.277 1.089 -0.112 1.366 0.366 l 4.4 7.621 c 0.276 0.479 0.112 1.09 -0.366 1.366 C 34.471 89.957 34.299 90 34.13 90 z" style="stroke: none; stroke-width: 1; stroke-dasharray: none; stroke-linecap: butt; stroke-linejoin: miter; stroke-miterlimit: 10; fill: rgb(0,0,0); fill-rule: nonzero; opacity: 1;" transform=" matrix(1 0 0 1 0 0) " stroke-linecap="round" />
	<path d="M 29.728 90 c -0.169 0 -0.341 -0.043 -0.499 -0.134 c -0.479 -0.276 -0.642 -0.888 -0.366 -1.366 l 4.4 -7.621 c 0.276 -0.478 0.885 -0.644 1.366 -0.366 c 0.479 0.276 0.642 0.888 0.366 1.366 l -4.4 7.621 C 30.41 89.82 30.074 90 29.728 90 z" style="stroke: none; stroke-width: 1; stroke-dasharray: none; stroke-linecap: butt; stroke-linejoin: miter; stroke-miterlimit: 10; fill: rgb(0,0,0); fill-rule: nonzero; opacity: 1;" transform=" matrix(1 0 0 1 0 0) " stroke-linecap="round" />
	<path d="M 36.329 86.189 h -8.8 c -0.552 0 -1 -0.447 -1 -1 s 0.448 -1 1 -1 h 8.8 c 0.552 0 1 0.447 1 1 S 36.881 86.189 36.329 86.189 z" style="stroke: none; stroke-width: 1; stroke-dasharray: none; stroke-linecap: butt; stroke-linejoin: miter; stroke-miterlimit: 10; fill: rgb(0,0,0); fill-rule: nonzero; opacity: 1;" transform=" matrix(1 0 0 1 0 0) " stroke-linecap="round" />
	<path d="M 45.433 77.755 c -0.346 0 -0.682 -0.179 -0.867 -0.5 l -4.4 -7.621 c -0.276 -0.479 -0.112 -1.09 0.366 -1.366 c 0.479 -0.276 1.09 -0.113 1.366 0.366 l 4.399 7.621 c 0.276 0.479 0.112 1.09 -0.366 1.366 C 45.774 77.712 45.603 77.755 45.433 77.755 z" style="stroke: none; stroke-width: 1; stroke-dasharray: none; stroke-linecap: butt; stroke-linejoin: miter; stroke-miterlimit: 10; fill: rgb(0,0,0); fill-rule: nonzero; opacity: 1;" transform=" matrix(1 0 0 1 0 0) " stroke-linecap="round" />
	<path d="M 41.031 77.755 c -0.169 0 -0.341 -0.043 -0.499 -0.134 c -0.479 -0.276 -0.642 -0.888 -0.366 -1.366 l 4.4 -7.621 c 0.276 -0.478 0.886 -0.643 1.366 -0.366 c 0.478 0.276 0.642 0.888 0.366 1.366 l -4.399 7.621 C 41.713 77.575 41.377 77.755 41.031 77.755 z" style="stroke: none; stroke-width: 1; stroke-dasharray: none; stroke-linecap: butt; stroke-linejoin: miter; stroke-miterlimit: 10; fill: rgb(0,0,0); fill-rule: nonzero; opacity: 1;" transform=" matrix(1 0 0 1 0 0) " stroke-linecap="round" />
	<path d="M 47.632 73.944 h -8.799 c -0.552 0 -1 -0.447 -1 -1 s 0.448 -1 1 -1 h 8.799 c 0.553 0 1 0.447 1 1 S 48.185 73.944 47.632 73.944 z" style="stroke: none; stroke-width: 1; stroke-dasharray: none; stroke-linecap: butt; stroke-linejoin: miter; stroke-miterlimit: 10; fill: rgb(0,0,0); fill-rule: nonzero; opacity: 1;" transform=" matrix(1 0 0 1 0 0) " stroke-linecap="round" />
	<path d="M 56.736 90 c -0.346 0 -0.682 -0.179 -0.867 -0.5 l -4.399 -7.621 c -0.276 -0.479 -0.112 -1.09 0.366 -1.366 c 0.477 -0.276 1.089 -0.113 1.366 0.366 l 4.399 7.621 c 0.276 0.479 0.112 1.09 -0.366 1.366 C 57.078 89.957 56.906 90 56.736 90 z" style="stroke: none; stroke-width: 1; stroke-dasharray: none; stroke-linecap: butt; stroke-linejoin: miter; stroke-miterlimit: 10; fill: rgb(0,0,0); fill-rule: nonzero; opacity: 1;" transform=" matrix(1 0 0 1 0 0) " stroke-linecap="round" />
	<path d="M 52.335 90 c -0.17 0 -0.342 -0.043 -0.499 -0.134 c -0.479 -0.276 -0.643 -0.888 -0.366 -1.366 l 4.399 -7.621 c 0.276 -0.479 0.889 -0.643 1.366 -0.366 c 0.479 0.276 0.643 0.888 0.366 1.366 L 53.202 89.5 C 53.017 89.82 52.681 90 52.335 90 z" style="stroke: none; stroke-width: 1; stroke-dasharray: none; stroke-linecap: butt; stroke-linejoin: miter; stroke-miterlimit: 10; fill: rgb(0,0,0); fill-rule: nonzero; opacity: 1;" transform=" matrix(1 0 0 1 0 0) " stroke-linecap="round" />
	<path d="M 58.936 86.189 h -8.8 c -0.553 0 -1 -0.447 -1 -1 s 0.447 -1 1 -1 h 8.8 c 0.553 0 1 0.447 1 1 S 59.488 86.189 58.936 86.189 z" style="stroke: none; stroke-width: 1; stroke-dasharray: none; stroke-linecap: butt; stroke-linejoin: miter; stroke-miterlimit: 10; fill: rgb(0,0,0); fill-rule: nonzero; opacity: 1;" transform=" matrix(1 0 0 1 0 0) " stroke-linecap="round" />
	<path d="M 66.156 77.755 c -0.346 0 -0.682 -0.179 -0.867 -0.5 l -4.4 -7.621 c -0.276 -0.479 -0.112 -1.09 0.366 -1.366 c 0.477 -0.275 1.089 -0.114 1.366 0.366 l 4.4 7.621 c 0.276 0.479 0.112 1.09 -0.366 1.366 C 66.498 77.712 66.326 77.755 66.156 77.755 z" style="stroke: none; stroke-width: 1; stroke-dasharray: none; stroke-linecap: butt; stroke-linejoin: miter; stroke-miterlimit: 10; fill: rgb(0,0,0); fill-rule: nonzero; opacity: 1;" transform=" matrix(1 0 0 1 0 0) " stroke-linecap="round" />
	<path d="M 61.754 77.755 c -0.17 0 -0.342 -0.043 -0.499 -0.134 c -0.479 -0.276 -0.643 -0.888 -0.366 -1.366 l 4.4 -7.621 c 0.276 -0.48 0.888 -0.642 1.366 -0.366 c 0.479 0.276 0.643 0.888 0.366 1.366 l -4.4 7.621 C 62.436 77.576 62.1 77.755 61.754 77.755 z" style="stroke: none; stroke-width: 1; stroke-dasharray: none; stroke-linecap: butt; stroke-linejoin: miter; stroke-miterlimit: 10; fill: rgb(0,0,0); fill-rule: nonzero; opacity: 1;" transform=" matrix(1 0 0 1 0 0) " stroke-linecap="round" />
	<path d="M 68.354 73.944 h -8.8 c -0.553 0 -1 -0.447 -1 -1 s 0.447 -1 1 -1 h 8.8 c 0.553 0 1 0.447 1 1 S 68.907 73.944 68.354 73.944 z" style="stroke: none; stroke-width: 1; stroke-dasharray: none; stroke-linecap: butt; stroke-linejoin: miter; stroke-miterlimit: 10; fill: rgb(0,0,0); fill-rule: nonzero; opacity: 1;" transform=" matrix(1 0 0 1 0 0) " stroke-linecap="round" />
</g>
</svg>