<svg xmlns="http://www.w3.org/2000/svg" xmlns:xlink="http://www.w3.org/1999/xlink" version="1.1" width="256" height="256" viewBox="0 0 256 256" xml:space="preserve">

<defs>
</defs>
<g style="stroke: none; stroke-width: 0; stroke-dasharray: none; stroke-linecap: butt; stroke-linejoin: miter; stroke-miterlimit: 10; fill: none; fill-rule: nonzero; opacity: 1;" transform="translate(1.4065934065934016 1.4065934065934016) scale(2.81 2.81)" >
	<path d="M 71.09 34.268 c -6.888 3.534 -15.337 0.815 -18.87 -6.074 s -0.814 -15.337 6.074 -18.87 c 0.656 -0.336 1.328 -0.598 2.006 -0.823 c -3.24 -0.235 -6.584 0.388 -9.686 1.979 c -9.018 4.626 -12.578 15.687 -7.952 24.705 s 15.687 12.578 24.705 7.952 c 5.996 -3.076 9.575 -8.997 9.943 -15.271 C 76.031 30.528 73.919 32.816 71.09 34.268 z" style="stroke: none; stroke-width: 1; stroke-dasharray: none; stroke-linecap: butt; stroke-linejoin: miter; stroke-miterlimit: 10; fill: rgb(133,229,255); fill-rule: nonzero; opacity: 1;" transform=" matrix(1 0 0 1 0 0) " stroke-linecap="round" />
	<path d="M 59.021 46.158 c -7.032 0.001 -13.825 -3.841 -17.25 -10.516 c -4.871 -9.494 -1.109 -21.181 8.386 -26.051 c 3.158 -1.621 6.693 -2.34 10.214 -2.087 c 0.476 0.035 0.861 0.4 0.92 0.874 c 0.06 0.474 -0.225 0.923 -0.678 1.073 c -0.714 0.237 -1.324 0.486 -1.863 0.764 c -3.094 1.587 -5.385 4.284 -6.45 7.594 c -1.065 3.31 -0.777 6.836 0.81 9.93 s 4.284 5.384 7.594 6.45 c 3.313 1.066 6.838 0.778 9.931 -0.809 l 0 0 c 2.534 -1.301 4.531 -3.356 5.774 -5.946 c 0.206 -0.43 0.689 -0.655 1.151 -0.535 c 0.463 0.12 0.776 0.55 0.748 1.027 c -0.4 6.819 -4.418 12.989 -10.485 16.102 C 65.004 45.473 61.991 46.158 59.021 46.158 z M 55.69 9.771 c -1.599 0.311 -3.154 0.847 -4.621 1.599 c -8.513 4.367 -11.885 14.846 -7.519 23.359 c 4.368 8.513 14.844 11.885 23.359 7.519 c 4.072 -2.089 7.114 -5.715 8.538 -9.972 c -1.124 1.158 -2.435 2.13 -3.902 2.883 l 0 0 c -3.567 1.832 -7.636 2.163 -11.456 0.934 c -3.818 -1.229 -6.929 -3.872 -8.76 -7.44 s -2.163 -7.638 -0.934 -11.456 C 51.364 14.189 53.208 11.621 55.69 9.771 z M 71.09 34.269 h 0.01 H 71.09 z" style="stroke: none; stroke-width: 1; stroke-dasharray: none; stroke-linecap: butt; stroke-linejoin: miter; stroke-miterlimit: 10; fill: rgb(0,0,0); fill-rule: nonzero; opacity: 1;" transform=" matrix(1 0 0 1 0 0) " stroke-linecap="round" />
	<path d="M 10.265 55.289 c -0.033 -0.502 -0.056 -1.006 -0.056 -1.516 c 0 -12.432 10.078 -22.509 22.509 -22.509 c 8.993 0 16.752 5.276 20.357 12.9 c 2.715 -1.928 6.025 -3.072 9.609 -3.072 c 8.291 0 15.145 6.074 16.405 14.01 C 84.799 56.664 89 61.874 89 68.079 c 0 7.438 -6.03 13.468 -13.468 13.468 H 14.468 C 7.03 81.547 1 75.517 1 68.079 C 1 62.11 4.887 57.055 10.265 55.289 z" style="stroke: none; stroke-width: 1; stroke-dasharray: none; stroke-linecap: butt; stroke-linejoin: miter; stroke-miterlimit: 10; fill: rgb(98,195,247); fill-rule: nonzero; opacity: 1;" transform=" matrix(1 0 0 1 0 0) " stroke-linecap="round" />
	<path d="M 75.532 82.547 H 14.468 C 6.49 82.547 0 76.057 0 68.079 c 0 -6.004 3.677 -11.328 9.227 -13.48 c -0.011 -0.273 -0.018 -0.549 -0.018 -0.826 c 0 -12.963 10.546 -23.509 23.509 -23.509 c 8.661 0 16.68 4.848 20.744 12.445 c 2.78 -1.716 5.945 -2.617 9.223 -2.617 c 8.5 0 15.67 5.946 17.282 14.228 C 85.905 56.231 90 61.8 90 68.079 C 90 76.057 83.51 82.547 75.532 82.547 z M 32.718 32.264 c -11.86 0 -21.509 9.649 -21.509 21.509 c 0 0.488 0.022 0.971 0.054 1.45 c 0.03 0.456 -0.252 0.874 -0.686 1.017 C 5.447 57.925 2 62.683 2 68.079 c 0 6.875 5.593 12.468 12.468 12.468 h 61.064 C 82.407 80.547 88 74.954 88 68.079 c 0 -5.595 -3.772 -10.534 -9.174 -12.013 c -0.379 -0.104 -0.662 -0.42 -0.724 -0.808 c -1.211 -7.63 -7.695 -13.167 -15.418 -13.167 c -3.246 0 -6.369 0.999 -9.03 2.888 c -0.242 0.171 -0.548 0.228 -0.832 0.152 c -0.286 -0.075 -0.524 -0.272 -0.651 -0.54 C 48.63 37.103 40.994 32.264 32.718 32.264 z" style="stroke: none; stroke-width: 1; stroke-dasharray: none; stroke-linecap: butt; stroke-linejoin: miter; stroke-miterlimit: 10; fill: rgb(0,0,0); fill-rule: nonzero; opacity: 1;" transform=" matrix(1 0 0 1 0 0) " stroke-linecap="round" />
</g>
</svg>