<svg xmlns="http://www.w3.org/2000/svg" xmlns:xlink="http://www.w3.org/1999/xlink" version="1.1" width="256" height="256" viewBox="0 0 256 256" xml:space="preserve">

<defs>
</defs>
<g style="stroke: none; stroke-width: 0; stroke-dasharray: none; stroke-linecap: butt; stroke-linejoin: miter; stroke-miterlimit: 10; fill: none; fill-rule: nonzero; opacity: 1;" transform="translate(1.4065934065934016 1.4065934065934016) scale(2.81 2.81)" >
	<path d="M 76.497 26.749 c -6.871 3.525 -15.298 0.812 -18.822 -6.058 S 56.863 5.394 63.733 1.869 c 0.654 -0.335 1.325 -0.597 2.001 -0.821 c -3.232 -0.234 -6.568 0.387 -9.662 1.974 c -8.995 4.615 -12.546 15.647 -7.931 24.642 s 15.647 12.546 24.642 7.931 c 5.981 -3.068 9.551 -8.974 9.918 -15.232 C 81.427 23.019 79.32 25.301 76.497 26.749 z" style="stroke: none; stroke-width: 1; stroke-dasharray: none; stroke-linecap: butt; stroke-linejoin: miter; stroke-miterlimit: 10; fill: rgb(133,229,255); fill-rule: nonzero; opacity: 1;" transform=" matrix(1 0 0 1 0 0) " stroke-linecap="round" />
	<path d="M 64.449 38.624 c -1.989 0 -3.987 -0.311 -5.936 -0.938 c -4.908 -1.58 -8.908 -4.977 -11.262 -9.564 c -2.354 -4.588 -2.78 -9.818 -1.2 -14.727 c 1.58 -4.908 4.977 -8.908 9.565 -11.262 c 3.15 -1.617 6.677 -2.338 10.189 -2.082 c 0.476 0.035 0.861 0.401 0.92 0.874 c 0.059 0.474 -0.225 0.923 -0.678 1.073 c -0.722 0.239 -1.312 0.481 -1.858 0.762 c -3.086 1.583 -5.37 4.272 -6.433 7.573 c -1.063 3.301 -0.776 6.817 0.807 9.903 c 3.269 6.37 11.106 8.893 17.477 5.625 l 0 0 c 2.528 -1.297 4.52 -3.347 5.759 -5.929 c 0.206 -0.431 0.69 -0.656 1.151 -0.536 c 0.463 0.12 0.776 0.55 0.748 1.027 C 83.3 27.226 79.293 33.38 73.24 36.485 C 70.474 37.905 67.473 38.624 64.449 38.624 z M 61.127 2.319 c -1.59 0.31 -3.138 0.844 -4.598 1.593 c -4.112 2.11 -7.157 5.695 -8.573 10.095 c -1.417 4.4 -1.034 9.088 1.075 13.201 s 5.695 7.158 10.095 8.574 c 4.402 1.417 9.088 1.034 13.202 -1.076 c 4.057 -2.082 7.09 -5.694 8.51 -9.934 c -1.118 1.151 -2.424 2.118 -3.885 2.867 c -7.351 3.772 -16.397 0.858 -20.168 -6.491 c -1.826 -3.561 -2.157 -7.62 -0.932 -11.429 C 56.818 6.723 58.654 4.164 61.127 2.319 z" style="stroke: none; stroke-width: 1; stroke-dasharray: none; stroke-linecap: butt; stroke-linejoin: miter; stroke-miterlimit: 10; fill: rgb(0,0,0); fill-rule: nonzero; opacity: 1;" transform=" matrix(1 0 0 1 0 0) " stroke-linecap="round" />
	<path d="M 14.797 42.539 c -0.029 -0.436 -0.049 -0.875 -0.049 -1.318 c 0 -10.81 8.763 -19.573 19.573 -19.573 c 7.82 0 14.566 4.588 17.701 11.217 c 2.361 -1.676 5.239 -2.671 8.355 -2.671 c 7.21 0 13.169 5.281 14.265 12.182 c 4.964 1.358 8.617 5.889 8.617 11.284 c 0 6.468 -5.243 11.711 -11.711 11.711 H 18.451 c -6.468 0 -11.711 -5.243 -11.711 -11.711 C 6.74 48.47 10.121 44.075 14.797 42.539 z" style="stroke: none; stroke-width: 1; stroke-dasharray: none; stroke-linecap: butt; stroke-linejoin: miter; stroke-miterlimit: 10; fill: rgb(98,195,247); fill-rule: nonzero; opacity: 1;" transform=" matrix(1 0 0 1 0 0) " stroke-linecap="round" />
	<path d="M 71.549 66.371 H 18.451 c -7.009 0 -12.711 -5.702 -12.711 -12.711 c 0 -5.244 3.192 -9.896 8.02 -11.809 c -0.007 -0.209 -0.012 -0.419 -0.012 -0.63 c 0 -11.344 9.229 -20.573 20.572 -20.573 c 7.533 0 14.511 4.19 18.087 10.769 c 2.409 -1.458 5.142 -2.223 7.97 -2.223 c 7.428 0 13.698 5.178 15.142 12.402 c 5.178 1.701 8.741 6.573 8.741 12.064 C 84.26 60.669 78.558 66.371 71.549 66.371 z M 34.32 22.648 c -10.241 0 -18.572 8.332 -18.572 18.573 c 0 0.421 0.019 0.838 0.047 1.252 c 0.03 0.456 -0.252 0.874 -0.686 1.016 C 10.702 44.937 7.74 49.024 7.74 53.66 c 0 5.906 4.805 10.711 10.711 10.711 h 53.098 c 5.906 0 10.711 -4.805 10.711 -10.711 c 0 -4.806 -3.241 -9.049 -7.881 -10.319 c -0.379 -0.104 -0.662 -0.419 -0.724 -0.808 c -1.044 -6.57 -6.628 -11.339 -13.278 -11.339 c -2.796 0 -5.484 0.86 -7.776 2.487 c -0.242 0.171 -0.548 0.226 -0.832 0.152 c -0.286 -0.075 -0.524 -0.272 -0.651 -0.54 C 48.06 26.827 41.467 22.648 34.32 22.648 z" style="stroke: none; stroke-width: 1; stroke-dasharray: none; stroke-linecap: butt; stroke-linejoin: miter; stroke-miterlimit: 10; fill: rgb(0,0,0); fill-rule: nonzero; opacity: 1;" transform=" matrix(1 0 0 1 0 0) " stroke-linecap="round" />
	<path d="M 61.941 80.8 c -0.553 0 -1 -0.447 -1 -1 v -8.587 c 0 -0.553 0.447 -1 1 -1 s 1 0.447 1 1 V 79.8 C 62.941 80.353 62.494 80.8 61.941 80.8 z" style="stroke: none; stroke-width: 1; stroke-dasharray: none; stroke-linecap: butt; stroke-linejoin: miter; stroke-miterlimit: 10; fill: rgb(0,0,0); fill-rule: nonzero; opacity: 1;" transform=" matrix(1 0 0 1 0 0) " stroke-linecap="round" />
	<path d="M 52.741 90 c -0.553 0 -1 -0.447 -1 -1 v -8.587 c 0 -0.553 0.447 -1 1 -1 s 1 0.447 1 1 V 89 C 53.741 89.553 53.294 90 52.741 90 z" style="stroke: none; stroke-width: 1; stroke-dasharray: none; stroke-linecap: butt; stroke-linejoin: miter; stroke-miterlimit: 10; fill: rgb(0,0,0); fill-rule: nonzero; opacity: 1;" transform=" matrix(1 0 0 1 0 0) " stroke-linecap="round" />
	<path d="M 43.541 80.8 c -0.552 0 -1 -0.447 -1 -1 v -8.587 c 0 -0.553 0.448 -1 1 -1 s 1 0.447 1 1 V 79.8 C 44.541 80.353 44.093 80.8 43.541 80.8 z" style="stroke: none; stroke-width: 1; stroke-dasharray: none; stroke-linecap: butt; stroke-linejoin: miter; stroke-miterlimit: 10; fill: rgb(0,0,0); fill-rule: nonzero; opacity: 1;" transform=" matrix(1 0 0 1 0 0) " stroke-linecap="round" />
	<path d="M 34.341 90 c -0.552 0 -1 -0.447 -1 -1 v -8.587 c 0 -0.553 0.448 -1 1 -1 s 1 0.447 1 1 V 89 C 35.341 89.553 34.893 90 34.341 90 z" style="stroke: none; stroke-width: 1; stroke-dasharray: none; stroke-linecap: butt; stroke-linejoin: miter; stroke-miterlimit: 10; fill: rgb(0,0,0); fill-rule: nonzero; opacity: 1;" transform=" matrix(1 0 0 1 0 0) " stroke-linecap="round" />
	<path d="M 25.141 80.8 c -0.552 0 -1 -0.447 -1 -1 v -8.587 c 0 -0.553 0.448 -1 1 -1 s 1 0.447 1 1 V 79.8 C 26.141 80.353 25.693 80.8 25.141 80.8 z" style="stroke: none; stroke-width: 1; stroke-dasharray: none; stroke-linecap: butt; stroke-linejoin: miter; stroke-miterlimit: 10; fill: rgb(0,0,0); fill-rule: nonzero; opacity: 1;" transform=" matrix(1 0 0 1 0 0) " stroke-linecap="round" />
</g>
</svg>