<svg xmlns="http://www.w3.org/2000/svg" xmlns:xlink="http://www.w3.org/1999/xlink" version="1.1" width="256" height="256" viewBox="0 0 256 256" xml:space="preserve">

<defs>
</defs>
<g style="stroke: none; stroke-width: 0; stroke-dasharray: none; stroke-linecap: butt; stroke-linejoin: miter; stroke-miterlimit: 10; fill: none; fill-rule: nonzero; opacity: 1;" transform="translate(1.4065934065934016 1.4065934065934016) scale(2.81 2.81)" >
	<path d="M 10.265 29.791 c -0.033 -0.502 -0.056 -1.006 -0.056 -1.516 c 0 -12.432 10.078 -22.509 22.509 -22.509 c 8.993 0 16.752 5.276 20.357 12.9 c 2.715 -1.928 6.025 -3.072 9.609 -3.072 c 8.291 0 15.145 6.074 16.405 14.01 C 84.799 31.166 89 36.376 89 42.581 c 0 7.438 -6.03 13.468 -13.468 13.468 H 14.468 C 7.03 56.049 1 50.019 1 42.581 C 1 36.612 4.887 31.557 10.265 29.791 z" style="stroke: none; stroke-width: 1; stroke-dasharray: none; stroke-linecap: butt; stroke-linejoin: miter; stroke-miterlimit: 10; fill: rgb(98,195,247); fill-rule: nonzero; opacity: 1;" transform=" matrix(1 0 0 1 0 0) " stroke-linecap="round" />
	<path d="M 75.532 57.049 H 14.468 C 6.49 57.049 0 50.559 0 42.581 c 0 -6.004 3.677 -11.328 9.227 -13.48 c -0.011 -0.274 -0.018 -0.549 -0.018 -0.826 c 0 -12.963 10.546 -23.509 23.509 -23.509 c 8.661 0 16.68 4.848 20.744 12.445 c 2.78 -1.716 5.945 -2.617 9.223 -2.617 c 8.5 0 15.67 5.945 17.282 14.228 C 85.905 30.733 90 36.301 90 42.581 C 90 50.559 83.51 57.049 75.532 57.049 z M 32.718 6.766 c -11.86 0 -21.509 9.649 -21.509 21.509 c 0 0.488 0.022 0.97 0.054 1.45 c 0.03 0.456 -0.252 0.874 -0.686 1.016 C 5.447 32.426 2 37.185 2 42.581 c 0 6.875 5.593 12.468 12.468 12.468 h 61.064 C 82.407 55.049 88 49.456 88 42.581 c 0 -5.595 -3.772 -10.535 -9.174 -12.013 c -0.379 -0.104 -0.662 -0.419 -0.724 -0.808 c -1.211 -7.629 -7.695 -13.167 -15.418 -13.167 c -3.246 0 -6.369 0.999 -9.03 2.888 c -0.242 0.171 -0.548 0.227 -0.832 0.152 c -0.286 -0.075 -0.524 -0.272 -0.651 -0.54 C 48.63 11.604 40.994 6.766 32.718 6.766 z" style="stroke: none; stroke-width: 1; stroke-dasharray: none; stroke-linecap: butt; stroke-linejoin: miter; stroke-miterlimit: 10; fill: rgb(0,0,0); fill-rule: nonzero; opacity: 1;" transform=" matrix(1 0 0 1 0 0) " stroke-linecap="round" />
	<path d="M 65 75.234 c -0.553 0 -1 -0.447 -1 -1 V 64.9 c 0 -0.553 0.447 -1 1 -1 s 1 0.447 1 1 v 9.334 C 66 74.787 65.553 75.234 65 75.234 z" style="stroke: none; stroke-width: 1; stroke-dasharray: none; stroke-linecap: butt; stroke-linejoin: miter; stroke-miterlimit: 10; fill: rgb(0,0,0); fill-rule: nonzero; opacity: 1;" transform=" matrix(1 0 0 1 0 0) " stroke-linecap="round" />
	<path d="M 55 85.234 c -0.553 0 -1 -0.447 -1 -1 V 74.9 c 0 -0.553 0.447 -1 1 -1 s 1 0.447 1 1 v 9.334 C 56 84.787 55.553 85.234 55 85.234 z" style="stroke: none; stroke-width: 1; stroke-dasharray: none; stroke-linecap: butt; stroke-linejoin: miter; stroke-miterlimit: 10; fill: rgb(0,0,0); fill-rule: nonzero; opacity: 1;" transform=" matrix(1 0 0 1 0 0) " stroke-linecap="round" />
	<path d="M 45 75.234 c -0.552 0 -1 -0.447 -1 -1 V 64.9 c 0 -0.553 0.448 -1 1 -1 s 1 0.447 1 1 v 9.334 C 46 74.787 45.552 75.234 45 75.234 z" style="stroke: none; stroke-width: 1; stroke-dasharray: none; stroke-linecap: butt; stroke-linejoin: miter; stroke-miterlimit: 10; fill: rgb(0,0,0); fill-rule: nonzero; opacity: 1;" transform=" matrix(1 0 0 1 0 0) " stroke-linecap="round" />
	<path d="M 35 85.234 c -0.552 0 -1 -0.447 -1 -1 V 74.9 c 0 -0.553 0.448 -1 1 -1 s 1 0.447 1 1 v 9.334 C 36 84.787 35.552 85.234 35 85.234 z" style="stroke: none; stroke-width: 1; stroke-dasharray: none; stroke-linecap: butt; stroke-linejoin: miter; stroke-miterlimit: 10; fill: rgb(0,0,0); fill-rule: nonzero; opacity: 1;" transform=" matrix(1 0 0 1 0 0) " stroke-linecap="round" />
	<path d="M 25 75.234 c -0.552 0 -1 -0.447 -1 -1 V 64.9 c 0 -0.553 0.448 -1 1 -1 s 1 0.447 1 1 v 9.334 C 26 74.787 25.552 75.234 25 75.234 z" style="stroke: none; stroke-width: 1; stroke-dasharray: none; stroke-linecap: butt; stroke-linejoin: miter; stroke-miterlimit: 10; fill: rgb(0,0,0); fill-rule: nonzero; opacity: 1;" transform=" matrix(1 0 0 1 0 0) " stroke-linecap="round" />
</g>
</svg>