<svg xmlns="http://www.w3.org/2000/svg" xmlns:xlink="http://www.w3.org/1999/xlink" version="1.1" width="256" height="256" viewBox="0 0 256 256" xml:space="preserve">

<defs>
</defs>
<g style="stroke: none; stroke-width: 0; stroke-dasharray: none; stroke-linecap: butt; stroke-linejoin: miter; stroke-miterlimit: 10; fill: none; fill-rule: nonzero; opacity: 1;" transform="translate(1.4065934065934016 1.4065934065934016) scale(2.81 2.81)" >
	<path d="M 44.02 18.993 c -20.958 0 -37.948 16.99 -37.948 37.948 h 27.479 c 0 -5.781 4.687 -10.468 10.468 -10.468 s 10.468 4.687 10.468 10.468 h 27.479 C 81.968 35.983 64.978 18.993 44.02 18.993 z" style="stroke: none; stroke-width: 1; stroke-dasharray: none; stroke-linecap: butt; stroke-linejoin: miter; stroke-miterlimit: 10; fill: rgb(242,68,68); fill-rule: nonzero; opacity: 1;" transform=" matrix(1 0 0 1 0 0) " stroke-linecap="round" />
	<path d="M 44.02 28.153 c -15.899 0 -28.788 12.889 -28.788 28.788 h 18.32 c 0 -5.781 4.687 -10.468 10.468 -10.468 s 10.468 4.687 10.468 10.468 h 18.32 C 72.808 41.042 59.92 28.153 44.02 28.153 z" style="stroke: none; stroke-width: 1; stroke-dasharray: none; stroke-linecap: butt; stroke-linejoin: miter; stroke-miterlimit: 10; fill: rgb(255,190,0); fill-rule: nonzero; opacity: 1;" transform=" matrix(1 0 0 1 0 0) " stroke-linecap="round" />
	<path d="M 44.02 37.313 c -10.84 0 -19.628 8.788 -19.628 19.628 h 9.16 c 0 -5.781 4.687 -10.468 10.468 -10.468 s 10.468 4.687 10.468 10.468 h 9.16 C 63.649 46.101 54.861 37.313 44.02 37.313 z" style="stroke: none; stroke-width: 1; stroke-dasharray: none; stroke-linecap: butt; stroke-linejoin: miter; stroke-miterlimit: 10; fill: rgb(123,216,247); fill-rule: nonzero; opacity: 1;" transform=" matrix(1 0 0 1 0 0) " stroke-linecap="round" />
	<path d="M 63.648 57.94 c -0.553 0 -1 -0.447 -1 -1 c 0 -10.271 -8.356 -18.627 -18.628 -18.627 S 25.393 46.669 25.393 56.94 c 0 0.553 -0.448 1 -1 1 s -1 -0.447 -1 -1 c 0 -11.374 9.253 -20.627 20.628 -20.627 c 11.374 0 20.628 9.253 20.628 20.627 C 64.648 57.493 64.201 57.94 63.648 57.94 z" style="stroke: none; stroke-width: 1; stroke-dasharray: none; stroke-linecap: butt; stroke-linejoin: miter; stroke-miterlimit: 10; fill: rgb(0,0,0); fill-rule: nonzero; opacity: 1;" transform=" matrix(1 0 0 1 0 0) " stroke-linecap="round" />
	<path d="M 81.968 57.94 c -0.553 0 -1 -0.447 -1 -1 c 0 -20.373 -16.574 -36.947 -36.947 -36.947 S 7.073 36.568 7.073 56.94 c 0 0.553 -0.448 1 -1 1 s -1 -0.447 -1 -1 c 0 -21.476 17.472 -38.947 38.948 -38.947 c 21.476 0 38.947 17.472 38.947 38.947 C 82.968 57.493 82.521 57.94 81.968 57.94 z" style="stroke: none; stroke-width: 1; stroke-dasharray: none; stroke-linecap: butt; stroke-linejoin: miter; stroke-miterlimit: 10; fill: rgb(0,0,0); fill-rule: nonzero; opacity: 1;" transform=" matrix(1 0 0 1 0 0) " stroke-linecap="round" />
	<path d="M 54.489 57.94 c -0.553 0 -1 -0.447 -1 -1 c 0 -5.221 -4.248 -9.468 -9.469 -9.468 s -9.468 4.247 -9.468 9.468 c 0 0.553 -0.448 1 -1 1 s -1 -0.447 -1 -1 c 0 -6.323 5.145 -11.468 11.468 -11.468 c 6.324 0 11.469 5.145 11.469 11.468 C 55.489 57.493 55.042 57.94 54.489 57.94 z" style="stroke: none; stroke-width: 1; stroke-dasharray: none; stroke-linecap: butt; stroke-linejoin: miter; stroke-miterlimit: 10; fill: rgb(0,0,0); fill-rule: nonzero; opacity: 1;" transform=" matrix(1 0 0 1 0 0) " stroke-linecap="round" />
	<path d="M 72.809 57.94 c -0.553 0 -1 -0.447 -1 -1 c 0 -15.322 -12.466 -27.788 -27.788 -27.788 S 16.232 41.618 16.232 56.94 c 0 0.553 -0.448 1 -1 1 s -1 -0.447 -1 -1 c 0 -16.425 13.363 -29.788 29.788 -29.788 c 16.425 0 29.788 13.363 29.788 29.788 C 73.809 57.493 73.361 57.94 72.809 57.94 z" style="stroke: none; stroke-width: 1; stroke-dasharray: none; stroke-linecap: butt; stroke-linejoin: miter; stroke-miterlimit: 10; fill: rgb(0,0,0); fill-rule: nonzero; opacity: 1;" transform=" matrix(1 0 0 1 0 0) " stroke-linecap="round" />
	<path d="M 51.934 58.645 c -0.016 -0.236 -0.027 -0.474 -0.027 -0.714 c 0 -5.852 4.744 -10.597 10.597 -10.597 c 4.234 0 7.886 2.484 9.584 6.073 c 1.278 -0.908 2.837 -1.446 4.524 -1.446 c 3.903 0 7.13 2.859 7.723 6.596 C 87.022 59.293 89 61.746 89 64.667 c 0 3.502 -2.839 6.34 -6.34 6.34 H 53.912 c -3.502 0 -6.34 -2.839 -6.34 -6.34 C 47.572 61.856 49.402 59.477 51.934 58.645 z" style="stroke: none; stroke-width: 1; stroke-dasharray: none; stroke-linecap: butt; stroke-linejoin: miter; stroke-miterlimit: 10; fill: rgb(67,144,179); fill-rule: nonzero; opacity: 1;" transform=" matrix(1 0 0 1 0 0) " stroke-linecap="round" />
	<path d="M 82.66 72.007 H 53.912 c -4.047 0 -7.34 -3.293 -7.34 -7.34 c 0 -2.92 1.714 -5.522 4.335 -6.695 c 0 -0.014 0 -0.026 0 -0.04 c 0 -6.395 5.202 -11.597 11.597 -11.597 c 4.089 0 7.889 2.19 9.964 5.664 c 1.272 -0.682 2.686 -1.037 4.144 -1.037 c 4.153 0 7.672 2.835 8.592 6.825 C 88.057 58.841 90 61.585 90 64.667 C 90 68.714 86.707 72.007 82.66 72.007 z M 62.504 48.335 c -5.292 0 -9.597 4.305 -9.597 9.597 c 0 0.218 0.01 0.434 0.024 0.647 c 0.03 0.456 -0.252 0.874 -0.686 1.017 c -2.197 0.722 -3.674 2.76 -3.674 5.071 c 0 2.944 2.396 5.34 5.34 5.34 H 82.66 c 2.944 0 5.34 -2.396 5.34 -5.34 c 0 -2.396 -1.615 -4.512 -3.929 -5.145 c -0.379 -0.104 -0.662 -0.42 -0.724 -0.808 c -0.53 -3.334 -3.363 -5.753 -6.736 -5.753 c -1.419 0 -2.782 0.437 -3.944 1.262 c -0.241 0.171 -0.549 0.226 -0.832 0.152 c -0.286 -0.075 -0.524 -0.272 -0.651 -0.54 C 69.604 50.494 66.197 48.335 62.504 48.335 z" style="stroke: none; stroke-width: 1; stroke-dasharray: none; stroke-linecap: butt; stroke-linejoin: miter; stroke-miterlimit: 10; fill: rgb(0,0,0); fill-rule: nonzero; opacity: 1;" transform=" matrix(1 0 0 1 0 0) " stroke-linecap="round" />
	<path d="M 4.653 55.946 c -0.013 -0.198 -0.022 -0.397 -0.022 -0.598 c 0 -4.902 3.974 -8.875 8.875 -8.875 c 3.546 0 6.605 2.08 8.027 5.086 c 1.071 -0.76 2.376 -1.211 3.789 -1.211 c 3.269 0 5.972 2.395 6.469 5.524 c 2.251 0.616 3.908 2.67 3.908 5.117 c 0 2.933 -2.378 5.31 -5.31 5.31 H 6.31 c -2.933 0 -5.31 -2.378 -5.31 -5.31 C 1 58.635 2.533 56.642 4.653 55.946 z" style="stroke: none; stroke-width: 1; stroke-dasharray: none; stroke-linecap: butt; stroke-linejoin: miter; stroke-miterlimit: 10; fill: rgb(67,144,179); fill-rule: nonzero; opacity: 1;" transform=" matrix(1 0 0 1 0 0) " stroke-linecap="round" />
	<path d="M 30.388 67.299 H 6.311 C 2.831 67.299 0 64.468 0 60.988 c 0 -2.474 1.432 -4.683 3.631 -5.712 c 0.038 -5.412 4.453 -9.804 9.875 -9.804 c 3.43 0 6.621 1.811 8.405 4.691 c 1.054 -0.537 2.215 -0.816 3.411 -0.816 c 3.525 0 6.517 2.387 7.334 5.758 c 2.409 0.927 4.042 3.263 4.042 5.883 C 36.698 64.468 33.868 67.299 30.388 67.299 z M 13.506 47.473 c -4.343 0 -7.875 3.532 -7.875 7.875 c 0 0.179 0.008 0.355 0.02 0.531 c 0.031 0.455 -0.251 0.874 -0.685 1.017 C 3.192 57.479 2 59.123 2 60.988 c 0 2.377 1.934 4.311 4.311 4.311 h 24.078 c 2.376 0 4.31 -1.934 4.31 -4.311 c 0 -1.934 -1.304 -3.642 -3.171 -4.151 c -0.379 -0.104 -0.663 -0.42 -0.724 -0.809 c -0.43 -2.712 -2.735 -4.681 -5.48 -4.681 c -1.154 0 -2.264 0.354 -3.21 1.026 c -0.241 0.171 -0.545 0.227 -0.832 0.152 c -0.286 -0.075 -0.524 -0.272 -0.65 -0.54 C 19.333 49.244 16.537 47.473 13.506 47.473 z" style="stroke: none; stroke-width: 1; stroke-dasharray: none; stroke-linecap: butt; stroke-linejoin: miter; stroke-miterlimit: 10; fill: rgb(0,0,0); fill-rule: nonzero; opacity: 1;" transform=" matrix(1 0 0 1 0 0) " stroke-linecap="round" />
</g>
</svg>