<svg xmlns="http://www.w3.org/2000/svg" xmlns:xlink="http://www.w3.org/1999/xlink" version="1.1" width="256" height="256" viewBox="0 0 256 256" xml:space="preserve">

<defs>
</defs>
<g style="stroke: none; stroke-width: 0; stroke-dasharray: none; stroke-linecap: butt; stroke-linejoin: miter; stroke-miterlimit: 10; fill: none; fill-rule: nonzero; opacity: 1;" transform="translate(1.4065934065934016 1.4065934065934016) scale(2.81 2.81)" >
	<ellipse cx="33.001999999999995" cy="45" rx="12.302" ry="44" style="stroke: none; stroke-width: 1; stroke-dasharray: none; stroke-linecap: butt; stroke-linejoin: miter; stroke-miterlimit: 10; fill: rgb(61,132,160); fill-rule: nonzero; opacity: 1;" transform=" matrix(1 0 0 1 0 0) "/>
	<path d="M 45.302 45 c 0 24.301 -5.508 44 -12.302 44 h 24 c 6.794 0 12.302 -19.699 12.302 -44 S 63.794 1 57 1 H 33 C 39.794 1 45.302 20.699 45.302 45" style="stroke: none; stroke-width: 1; stroke-dasharray: none; stroke-linecap: butt; stroke-linejoin: miter; stroke-miterlimit: 10; fill: rgb(67,144,179); fill-rule: nonzero; opacity: 1;" transform=" matrix(1 0 0 1 0 0) " stroke-linecap="round" />
	<path d="M 33 90 c -8.64 0 -13.302 -23.186 -13.302 -45 C 19.698 23.185 24.36 0 33 0 s 13.302 23.185 13.302 45 C 46.302 66.814 41.64 90 33 90 z M 33 2 c -5.346 0 -11.302 17.66 -11.302 43 c 0 25.341 5.957 43 11.302 43 s 11.302 -17.659 11.302 -43 C 44.302 19.66 38.346 2 33 2 z" style="stroke: none; stroke-width: 1; stroke-dasharray: none; stroke-linecap: butt; stroke-linejoin: miter; stroke-miterlimit: 10; fill: rgb(0,0,0); fill-rule: nonzero; opacity: 1;" transform=" matrix(1 0 0 1 0 0) " stroke-linecap="round" />
	<path d="M 57 90 H 33 c -0.552 0 -1 -0.447 -1 -1 s 0.448 -1 1 -1 c 5.346 0 11.302 -17.659 11.302 -43 c 0 -25.34 -5.957 -43 -11.302 -43 c -0.552 0 -1 -0.448 -1 -1 s 0.448 -1 1 -1 h 24 c 8.64 0 13.302 23.185 13.302 45 C 70.302 66.814 65.64 90 57 90 z M 37.168 88 H 57 c 5.346 0 11.302 -17.659 11.302 -43 c 0 -25.34 -5.956 -43 -11.302 -43 H 37.168 c 5.961 6.076 9.133 25.004 9.133 43 S 43.13 81.925 37.168 88 z" style="stroke: none; stroke-width: 1; stroke-dasharray: none; stroke-linecap: butt; stroke-linejoin: miter; stroke-miterlimit: 10; fill: rgb(0,0,0); fill-rule: nonzero; opacity: 1;" transform=" matrix(1 0 0 1 0 0) " stroke-linecap="round" />
	<path d="M 71.133 64.841 H 40.867 c -3.153 0 -5.709 -2.556 -5.709 -5.709 V 28.867 c 0 -3.153 2.556 -5.709 5.709 -5.709 h 30.266 c 3.153 0 5.709 2.556 5.709 5.709 v 30.266 C 76.841 62.286 74.286 64.841 71.133 64.841 z" style="stroke: none; stroke-width: 1; stroke-dasharray: none; stroke-linecap: butt; stroke-linejoin: miter; stroke-miterlimit: 10; fill: rgb(129,188,218); fill-rule: nonzero; opacity: 1;" transform=" matrix(1 0 0 1 0 0) " stroke-linecap="round" />
	<path d="M 71.133 65.842 H 40.867 c -3.699 0 -6.708 -3.01 -6.708 -6.709 V 28.867 c 0 -3.699 3.009 -6.708 6.708 -6.708 h 30.266 c 3.699 0 6.709 3.009 6.709 6.708 v 30.266 C 77.842 62.832 74.832 65.842 71.133 65.842 z M 40.867 24.159 c -2.596 0 -4.708 2.112 -4.708 4.708 v 30.266 c 0 2.597 2.112 4.709 4.708 4.709 h 30.266 c 2.597 0 4.709 -2.112 4.709 -4.709 V 28.867 c 0 -2.596 -2.112 -4.708 -4.709 -4.708 H 40.867 z" style="stroke: none; stroke-width: 1; stroke-dasharray: none; stroke-linecap: butt; stroke-linejoin: miter; stroke-miterlimit: 10; fill: rgb(0,0,0); fill-rule: nonzero; opacity: 1;" transform=" matrix(1 0 0 1 0 0) " stroke-linecap="round" />
	<circle cx="56.501000000000005" cy="44.001000000000005" r="6.401" style="stroke: none; stroke-width: 1; stroke-dasharray: none; stroke-linecap: butt; stroke-linejoin: miter; stroke-miterlimit: 10; fill: rgb(255,190,0); fill-rule: nonzero; opacity: 1;" transform="  matrix(1 0 0 1 0 0) "/>
	<path d="M 56.5 51.401 c -4.081 0 -7.401 -3.32 -7.401 -7.401 s 3.32 -7.401 7.401 -7.401 s 7.4 3.32 7.4 7.401 S 60.581 51.401 56.5 51.401 z M 56.5 38.599 c -2.979 0 -5.401 2.423 -5.401 5.401 s 2.423 5.401 5.401 5.401 c 2.978 0 5.4 -2.423 5.4 -5.401 S 59.478 38.599 56.5 38.599 z" style="stroke: none; stroke-width: 1; stroke-dasharray: none; stroke-linecap: butt; stroke-linejoin: miter; stroke-miterlimit: 10; fill: rgb(0,0,0); fill-rule: nonzero; opacity: 1;" transform=" matrix(1 0 0 1 0 0) " stroke-linecap="round" />
	<path d="M 56.5 34.832 c -0.553 0 -1 -0.448 -1 -1 v -2.634 c 0 -0.552 0.447 -1 1 -1 s 1 0.448 1 1 v 2.634 C 57.5 34.384 57.053 34.832 56.5 34.832 z" style="stroke: none; stroke-width: 1; stroke-dasharray: none; stroke-linecap: butt; stroke-linejoin: miter; stroke-miterlimit: 10; fill: rgb(0,0,0); fill-rule: nonzero; opacity: 1;" transform=" matrix(1 0 0 1 0 0) " stroke-linecap="round" />
	<path d="M 56.5 57.803 c -0.553 0 -1 -0.447 -1 -1 v -2.635 c 0 -0.553 0.447 -1 1 -1 s 1 0.447 1 1 v 2.635 C 57.5 57.355 57.053 57.803 56.5 57.803 z" style="stroke: none; stroke-width: 1; stroke-dasharray: none; stroke-linecap: butt; stroke-linejoin: miter; stroke-miterlimit: 10; fill: rgb(0,0,0); fill-rule: nonzero; opacity: 1;" transform=" matrix(1 0 0 1 0 0) " stroke-linecap="round" />
	<path d="M 46.331 45 h -2.634 c -0.552 0 -1 -0.448 -1 -1 s 0.448 -1 1 -1 h 2.634 c 0.553 0 1 0.448 1 1 S 46.884 45 46.331 45 z" style="stroke: none; stroke-width: 1; stroke-dasharray: none; stroke-linecap: butt; stroke-linejoin: miter; stroke-miterlimit: 10; fill: rgb(0,0,0); fill-rule: nonzero; opacity: 1;" transform=" matrix(1 0 0 1 0 0) " stroke-linecap="round" />
	<path d="M 69.302 45 h -2.634 c -0.553 0 -1 -0.448 -1 -1 s 0.447 -1 1 -1 h 2.634 c 0.553 0 1 0.448 1 1 S 69.854 45 69.302 45 z" style="stroke: none; stroke-width: 1; stroke-dasharray: none; stroke-linecap: butt; stroke-linejoin: miter; stroke-miterlimit: 10; fill: rgb(0,0,0); fill-rule: nonzero; opacity: 1;" transform=" matrix(1 0 0 1 0 0) " stroke-linecap="round" />
	<path d="M 63.689 37.81 c -0.256 0 -0.512 -0.098 -0.707 -0.293 c -0.391 -0.391 -0.391 -1.024 0 -1.414 l 1.863 -1.863 c 0.391 -0.391 1.023 -0.391 1.414 0 s 0.391 1.024 0 1.414 l -1.863 1.863 C 64.201 37.712 63.945 37.81 63.689 37.81 z" style="stroke: none; stroke-width: 1; stroke-dasharray: none; stroke-linecap: butt; stroke-linejoin: miter; stroke-miterlimit: 10; fill: rgb(0,0,0); fill-rule: nonzero; opacity: 1;" transform=" matrix(1 0 0 1 0 0) " stroke-linecap="round" />
	<path d="M 47.447 54.053 c -0.256 0 -0.512 -0.098 -0.707 -0.293 c -0.391 -0.391 -0.391 -1.023 0 -1.414 l 1.862 -1.862 c 0.391 -0.391 1.023 -0.391 1.414 0 s 0.391 1.023 0 1.414 l -1.862 1.862 C 47.959 53.955 47.703 54.053 47.447 54.053 z" style="stroke: none; stroke-width: 1; stroke-dasharray: none; stroke-linecap: butt; stroke-linejoin: miter; stroke-miterlimit: 10; fill: rgb(0,0,0); fill-rule: nonzero; opacity: 1;" transform=" matrix(1 0 0 1 0 0) " stroke-linecap="round" />
	<path d="M 49.31 37.81 c -0.256 0 -0.512 -0.098 -0.707 -0.293 l -1.862 -1.863 c -0.391 -0.391 -0.391 -1.024 0 -1.414 c 0.391 -0.391 1.023 -0.391 1.414 0 l 1.862 1.863 c 0.391 0.391 0.391 1.024 0 1.414 C 49.821 37.712 49.565 37.81 49.31 37.81 z" style="stroke: none; stroke-width: 1; stroke-dasharray: none; stroke-linecap: butt; stroke-linejoin: miter; stroke-miterlimit: 10; fill: rgb(0,0,0); fill-rule: nonzero; opacity: 1;" transform=" matrix(1 0 0 1 0 0) " stroke-linecap="round" />
	<path d="M 65.553 54.053 c -0.256 0 -0.512 -0.098 -0.707 -0.293 l -1.863 -1.862 c -0.391 -0.391 -0.391 -1.023 0 -1.414 s 1.023 -0.391 1.414 0 l 1.863 1.862 c 0.391 0.391 0.391 1.023 0 1.414 C 66.064 53.955 65.809 54.053 65.553 54.053 z" style="stroke: none; stroke-width: 1; stroke-dasharray: none; stroke-linecap: butt; stroke-linejoin: miter; stroke-miterlimit: 10; fill: rgb(0,0,0); fill-rule: nonzero; opacity: 1;" transform=" matrix(1 0 0 1 0 0) " stroke-linecap="round" />
</g>
</svg>