<svg xmlns="http://www.w3.org/2000/svg" xmlns:xlink="http://www.w3.org/1999/xlink" version="1.1" width="256" height="256" viewBox="0 0 256 256" xml:space="preserve">

<defs>
</defs>
<g style="stroke: none; stroke-width: 0; stroke-dasharray: none; stroke-linecap: butt; stroke-linejoin: miter; stroke-miterlimit: 10; fill: none; fill-rule: nonzero; opacity: 1;" transform="translate(1.4065934065934016 1.4065934065934016) scale(2.81 2.81)" >
	<path d="M 57.206 12.835 c -5.877 0 -11.377 1.602 -16.099 4.383 C 44.9 11.036 50.741 6.247 57.697 3.811 C 53.709 2.011 49.288 1 44.629 1 C 27.07 1 12.835 15.234 12.835 32.794 c 0 5.877 1.602 11.377 4.383 16.099 C 11.036 45.1 6.247 39.259 3.811 32.303 C 2.011 36.291 1 40.712 1 45.371 C 1 62.93 15.234 77.165 32.794 77.165 c 5.877 0 11.377 -1.602 16.099 -4.383 c -3.793 6.182 -9.634 10.971 -16.589 13.407 C 36.291 87.989 40.712 89 45.371 89 c 17.559 0 31.794 -14.234 31.794 -31.794 c 0 -5.877 -1.602 -11.377 -4.383 -16.099 c 6.182 3.793 10.971 9.634 13.407 16.589 C 87.989 53.709 89 49.288 89 44.629 C 89 27.07 74.766 12.835 57.206 12.835 z" style="stroke: none; stroke-width: 1; stroke-dasharray: none; stroke-linecap: butt; stroke-linejoin: miter; stroke-miterlimit: 10; fill: rgb(67,144,179); fill-rule: nonzero; opacity: 1;" transform=" matrix(1 0 0 1 0 0) " stroke-linecap="round" />
	<path d="M 62.31 45 c 0 9.56 -7.75 17.31 -17.31 17.31 S 27.69 54.56 27.69 45 c 0 -2.141 0.389 -4.192 1.1 -6.085 c 0.711 -1.893 1.744 -3.628 3.032 -5.14 C 34.997 30.051 39.723 27.69 45 27.69 C 54.56 27.69 62.31 35.44 62.31 45 z" style="stroke: none; stroke-width: 1; stroke-dasharray: none; stroke-linecap: butt; stroke-linejoin: miter; stroke-miterlimit: 10; fill: rgb(129,188,218); fill-rule: nonzero; opacity: 1;" transform=" matrix(1 0 0 1 0 0) " stroke-linecap="round" />
	<circle cx="45" cy="45" r="6.15" style="stroke: none; stroke-width: 1; stroke-dasharray: none; stroke-linecap: butt; stroke-linejoin: miter; stroke-miterlimit: 10; fill: rgb(249,249,249); fill-rule: nonzero; opacity: 1;" transform="  matrix(1 0 0 1 0 0) "/>
	<path d="M 45.371 90 c -4.683 0 -9.218 -0.976 -13.479 -2.9 c -0.373 -0.168 -0.605 -0.546 -0.587 -0.955 c 0.018 -0.408 0.283 -0.765 0.668 -0.899 c 5.411 -1.895 10.195 -5.299 13.788 -9.755 c -4.079 1.757 -8.494 2.674 -12.967 2.674 C 14.711 78.164 0 63.453 0 45.371 c 0 -4.683 0.976 -9.218 2.9 -13.479 c 0.169 -0.372 0.543 -0.591 0.955 -0.587 c 0.409 0.018 0.765 0.283 0.9 0.668 c 1.895 5.411 5.298 10.195 9.755 13.788 c -1.758 -4.079 -2.675 -8.494 -2.675 -12.967 C 11.835 14.711 26.546 0 44.629 0 c 4.683 0 9.218 0.976 13.479 2.9 c 0.373 0.168 0.605 0.546 0.588 0.955 c -0.018 0.409 -0.282 0.765 -0.669 0.9 c -5.41 1.895 -10.194 5.299 -13.787 9.755 c 4.079 -1.758 8.494 -2.675 12.967 -2.675 C 75.289 11.835 90 26.546 90 44.629 c 0 4.683 -0.976 9.218 -2.9 13.479 c -0.168 0.373 -0.535 0.629 -0.955 0.588 c -0.408 -0.018 -0.765 -0.282 -0.899 -0.669 c -1.896 -5.41 -5.299 -10.194 -9.755 -13.787 c 1.757 4.078 2.674 8.493 2.674 12.967 C 78.164 75.289 63.453 90 45.371 90 z M 34.994 86.2 c 3.325 1.195 6.805 1.8 10.377 1.8 c 16.979 0 30.793 -13.814 30.793 -30.794 c 0 -5.484 -1.468 -10.876 -4.243 -15.591 c -0.233 -0.396 -0.167 -0.899 0.161 -1.221 c 0.327 -0.322 0.835 -0.379 1.223 -0.139 c 5.709 3.502 10.218 8.68 12.896 14.751 c 1.195 -3.325 1.8 -6.805 1.8 -10.377 c 0 -16.979 -13.814 -30.793 -30.794 -30.793 c -5.484 0 -10.876 1.468 -15.591 4.245 c -0.396 0.231 -0.899 0.166 -1.221 -0.161 c -0.322 -0.328 -0.379 -0.832 -0.139 -1.224 c 3.502 -5.708 8.68 -10.218 14.751 -12.896 C 51.681 2.604 48.201 2 44.629 2 C 27.649 2 13.835 15.814 13.835 32.793 c 0 5.485 1.468 10.876 4.245 15.591 c 0.233 0.396 0.167 0.899 -0.161 1.222 c -0.328 0.321 -0.832 0.377 -1.224 0.139 C 10.987 46.243 6.478 41.065 3.8 34.994 C 2.604 38.319 2 41.799 2 45.371 c 0 16.979 13.814 30.793 30.793 30.793 c 5.485 0 10.876 -1.468 15.591 -4.243 c 0.396 -0.235 0.898 -0.168 1.222 0.161 c 0.321 0.327 0.379 0.832 0.139 1.223 C 46.243 79.014 41.065 83.522 34.994 86.2 z" style="stroke: none; stroke-width: 1; stroke-dasharray: none; stroke-linecap: butt; stroke-linejoin: miter; stroke-miterlimit: 10; fill: rgb(0,0,0); fill-rule: nonzero; opacity: 1;" transform=" matrix(1 0 0 1 0 0) " stroke-linecap="round" />
	<path d="M 45 63.311 c -10.096 0 -18.31 -8.214 -18.31 -18.311 c 0 -0.552 0.448 -1 1 -1 s 1 0.448 1 1 c 0 8.994 7.317 16.311 16.31 16.311 c 8.994 0 16.311 -7.316 16.311 -16.311 c 0 -8.993 -7.316 -16.31 -16.311 -16.31 c -4.784 0 -9.31 2.09 -12.417 5.734 c -0.359 0.42 -0.99 0.469 -1.41 0.112 c -0.42 -0.358 -0.47 -0.99 -0.112 -1.41 c 3.487 -4.09 8.568 -6.437 13.939 -6.437 c 10.097 0 18.311 8.214 18.311 18.31 C 63.311 55.097 55.097 63.311 45 63.311 z" style="stroke: none; stroke-width: 1; stroke-dasharray: none; stroke-linecap: butt; stroke-linejoin: miter; stroke-miterlimit: 10; fill: rgb(0,0,0); fill-rule: nonzero; opacity: 1;" transform=" matrix(1 0 0 1 0 0) " stroke-linecap="round" />
	<path d="M 45 52.15 c -0.552 0 -1 -0.447 -1 -1 s 0.448 -1 1 -1 c 2.84 0 5.15 -2.311 5.15 -5.15 S 47.84 39.85 45 39.85 S 39.85 42.16 39.85 45 c 0 1.089 0.336 2.13 0.971 3.011 c 0.323 0.448 0.222 1.073 -0.226 1.396 c -0.448 0.321 -1.073 0.223 -1.396 -0.227 C 38.316 47.957 37.85 46.512 37.85 45 c 0 -3.943 3.208 -7.15 7.15 -7.15 c 3.942 0 7.15 3.208 7.15 7.15 C 52.15 48.942 48.942 52.15 45 52.15 z" style="stroke: none; stroke-width: 1; stroke-dasharray: none; stroke-linecap: butt; stroke-linejoin: miter; stroke-miterlimit: 10; fill: rgb(0,0,0); fill-rule: nonzero; opacity: 1;" transform=" matrix(1 0 0 1 0 0) " stroke-linecap="round" />
</g>
</svg>