<svg xmlns="http://www.w3.org/2000/svg" xmlns:xlink="http://www.w3.org/1999/xlink" version="1.1" width="256" height="256" viewBox="0 0 256 256" xml:space="preserve">

<defs>
</defs>
<g style="stroke: none; stroke-width: 0; stroke-dasharray: none; stroke-linecap: butt; stroke-linejoin: miter; stroke-miterlimit: 10; fill: none; fill-rule: nonzero; opacity: 1;" transform="translate(1.4065934065934016 1.4065934065934016) scale(2.81 2.81)" >
	<path d="M 57.471 55.351 v -41.88 C 57.471 6.584 51.888 1 45 1 h 0 c -6.888 0 -12.471 5.584 -12.471 12.471 v 41.88 c -4.297 3.697 -6.938 9.265 -6.645 15.443 c 0.458 9.647 8.258 17.571 17.897 18.168 c 11.122 0.689 20.357 -8.127 20.357 -19.1 C 64.138 64.058 61.551 58.861 57.471 55.351 z" style="stroke: none; stroke-width: 1; stroke-dasharray: none; stroke-linecap: butt; stroke-linejoin: miter; stroke-miterlimit: 10; fill: rgb(67,144,179); fill-rule: nonzero; opacity: 1;" transform=" matrix(1 0 0 1 0 0) " stroke-linecap="round" />
	<path d="M 48.759 59.957 V 25.723 h -7.518 v 34.234 c -4.416 1.677 -7.427 6.207 -6.748 11.347 c 0.626 4.743 4.511 8.549 9.265 9.09 c 6.412 0.729 11.845 -4.267 11.845 -10.532 C 55.603 65.332 52.756 61.476 48.759 59.957 z" style="stroke: none; stroke-width: 1; stroke-dasharray: none; stroke-linecap: butt; stroke-linejoin: miter; stroke-miterlimit: 10; fill: rgb(242,68,68); fill-rule: nonzero; opacity: 1;" transform=" matrix(1 0 0 1 0 0) " stroke-linecap="round" />
	<path d="M 44.961 13.723 L 44.961 13.723 c -2.054 0 -3.72 1.665 -3.72 3.72 v 8.28 h 7.439 v -8.28 C 48.68 15.389 47.015 13.723 44.961 13.723 z" style="stroke: none; stroke-width: 1; stroke-dasharray: none; stroke-linecap: butt; stroke-linejoin: miter; stroke-miterlimit: 10; fill: rgb(254,254,254); fill-rule: nonzero; opacity: 1;" transform=" matrix(1 0 0 1 0 0) " stroke-linecap="round" />
	<path d="M 45.006 81.464 c -0.163 0 -0.327 -0.003 -0.49 -0.01 C 38.657 81.216 33.784 76.448 33.42 70.6 c -0.303 -4.874 2.415 -9.334 6.821 -11.311 V 17.482 c 0 -2.625 2.135 -4.759 4.759 -4.759 s 4.759 2.135 4.759 4.759 V 59.29 c 4.121 1.859 6.844 6.022 6.844 10.571 c 0 3.189 -1.268 6.162 -3.568 8.371 C 50.853 80.327 48.018 81.464 45.006 81.464 z M 45 14.723 c -1.521 0 -2.759 1.238 -2.759 2.759 v 42.475 c 0 0.415 -0.257 0.787 -0.645 0.935 c -3.959 1.504 -6.443 5.355 -6.18 9.584 c 0.3 4.839 4.333 8.783 9.181 8.98 c 2.648 0.111 5.149 -0.839 7.052 -2.666 c 1.904 -1.829 2.953 -4.289 2.953 -6.929 c 0 -3.957 -2.491 -7.562 -6.199 -8.97 c -0.388 -0.147 -0.645 -0.52 -0.645 -0.935 V 17.482 C 47.759 15.961 46.521 14.723 45 14.723 z" style="stroke: none; stroke-width: 1; stroke-dasharray: none; stroke-linecap: butt; stroke-linejoin: miter; stroke-miterlimit: 10; fill: rgb(0,0,0); fill-rule: nonzero; opacity: 1;" transform=" matrix(1 0 0 1 0 0) " stroke-linecap="round" />
	<path d="M 45.017 90 c -0.431 0 -0.863 -0.013 -1.297 -0.04 c -10.082 -0.624 -18.354 -9.021 -18.834 -19.118 c -0.29 -6.095 2.127 -11.878 6.644 -15.942 V 13.471 C 31.529 6.043 37.572 0 45 0 c 7.429 0 13.472 6.043 13.472 13.471 v 41.428 c 4.243 3.823 6.667 9.249 6.667 14.962 c 0 5.535 -2.314 10.885 -6.349 14.677 C 55.015 88.086 50.165 90 45.017 90 z M 45 2 c -6.325 0 -11.471 5.146 -11.471 11.471 v 41.88 c 0 0.291 -0.127 0.568 -0.348 0.758 c -4.27 3.673 -6.565 9.008 -6.298 14.637 c 0.432 9.093 7.882 16.656 16.96 17.218 c 5.071 0.316 9.892 -1.421 13.577 -4.883 c 3.688 -3.467 5.719 -8.161 5.719 -13.22 c 0 -5.284 -2.304 -10.296 -6.319 -13.752 c -0.221 -0.189 -0.348 -0.467 -0.348 -0.758 v -41.88 C 56.472 7.146 51.325 2 45 2 z" style="stroke: none; stroke-width: 1; stroke-dasharray: none; stroke-linecap: butt; stroke-linejoin: miter; stroke-miterlimit: 10; fill: rgb(0,0,0); fill-rule: nonzero; opacity: 1;" transform=" matrix(1 0 0 1 0 0) " stroke-linecap="round" />
</g>
</svg>