<svg xmlns="http://www.w3.org/2000/svg" xmlns:xlink="http://www.w3.org/1999/xlink" version="1.1" width="256" height="256" viewBox="0 0 256 256" xml:space="preserve">

<defs>
</defs>
<g style="stroke: none; stroke-width: 0; stroke-dasharray: none; stroke-linecap: butt; stroke-linejoin: miter; stroke-miterlimit: 10; fill: none; fill-rule: nonzero; opacity: 1;" transform="translate(1.4065934065934016 1.4065934065934016) scale(2.81 2.81)" >
	<path d="M 62.875 89 H 27.125 c -4.139 0 -7.494 -3.355 -7.494 -7.494 V 8.494 C 19.632 4.355 22.987 1 27.125 1 h 35.749 c 4.139 0 7.494 3.355 7.494 7.494 v 73.012 C 70.368 85.645 67.013 89 62.875 89 z" style="stroke: none; stroke-width: 1; stroke-dasharray: none; stroke-linecap: butt; stroke-linejoin: miter; stroke-miterlimit: 10; fill: rgb(129,188,218); fill-rule: nonzero; opacity: 1;" transform=" matrix(1 0 0 1 0 0) " stroke-linecap="round" />
	<path d="M 31.982 1 h 0.932 c 1.874 0 3.536 1.204 4.12 2.985 v 0 c 0.72 2.198 2.771 3.684 5.083 3.684 h 6.301 c 2.313 0 4.363 -1.486 5.083 -3.684 l 0 0 C 54.085 2.204 55.747 1 57.621 1 h 0.397" style="stroke: none; stroke-width: 1; stroke-dasharray: none; stroke-linecap: butt; stroke-linejoin: miter; stroke-miterlimit: 10; fill: rgb(67,144,179); fill-rule: nonzero; opacity: 1;" transform=" matrix(1 0 0 1 0 0) " stroke-linecap="round" />
	<path d="M 62.875 90 h -35.75 c -4.684 0 -8.494 -3.811 -8.494 -8.494 V 8.494 C 18.631 3.81 22.442 0 27.125 0 h 35.75 c 4.684 0 8.493 3.81 8.493 8.494 v 73.012 C 71.368 86.189 67.559 90 62.875 90 z M 27.125 2 c -3.581 0 -6.494 2.913 -6.494 6.494 v 73.012 c 0 3.581 2.913 6.494 6.494 6.494 h 35.75 c 3.58 0 6.493 -2.913 6.493 -6.494 V 8.494 C 69.368 4.913 66.455 2 62.875 2 H 27.125 z" style="stroke: none; stroke-width: 1; stroke-dasharray: none; stroke-linecap: butt; stroke-linejoin: miter; stroke-miterlimit: 10; fill: rgb(0,0,0); fill-rule: nonzero; opacity: 1;" transform=" matrix(1 0 0 1 0 0) " stroke-linecap="round" />
	<path d="M 48.418 8.669 h -6.301 c -2.752 0 -5.177 -1.757 -6.034 -4.373 C 35.633 2.923 34.36 2 32.915 2 h -0.933 c -0.552 0 -1 -0.448 -1 -1 s 0.448 -1 1 -1 h 0.933 c 2.312 0 4.35 1.477 5.069 3.674 c 0.587 1.792 2.248 2.996 4.133 2.996 h 6.301 c 1.885 0 3.546 -1.204 4.133 -2.995 C 53.271 1.477 55.309 0 57.621 0 h 0.396 c 0.553 0 1 0.448 1 1 s -0.447 1 -1 1 h -0.396 c -1.445 0 -2.72 0.923 -3.17 2.297 C 53.595 6.912 51.17 8.669 48.418 8.669 z" style="stroke: none; stroke-width: 1; stroke-dasharray: none; stroke-linecap: butt; stroke-linejoin: miter; stroke-miterlimit: 10; fill: rgb(0,0,0); fill-rule: nonzero; opacity: 1;" transform=" matrix(1 0 0 1 0 0) " stroke-linecap="round" />
	<circle cx="45" cy="29.299999999999997" r="5.9" style="stroke: none; stroke-width: 1; stroke-dasharray: none; stroke-linecap: butt; stroke-linejoin: miter; stroke-miterlimit: 10; fill: rgb(255,190,0); fill-rule: nonzero; opacity: 1;" transform="  matrix(1 0 0 1 0 0) "/>
	<path d="M 45 36.201 c -3.805 0 -6.9 -3.095 -6.9 -6.9 s 3.096 -6.9 6.9 -6.9 s 6.9 3.096 6.9 6.9 S 48.805 36.201 45 36.201 z M 45 24.4 c -2.702 0 -4.9 2.198 -4.9 4.9 c 0 2.702 2.198 4.9 4.9 4.9 s 4.9 -2.198 4.9 -4.9 C 49.9 26.599 47.702 24.4 45 24.4 z" style="stroke: none; stroke-width: 1; stroke-dasharray: none; stroke-linecap: butt; stroke-linejoin: miter; stroke-miterlimit: 10; fill: rgb(0,0,0); fill-rule: nonzero; opacity: 1;" transform=" matrix(1 0 0 1 0 0) " stroke-linecap="round" />
	<path d="M 45 20.928 c -0.552 0 -1 -0.448 -1 -1 V 17.5 c 0 -0.552 0.448 -1 1 -1 s 1 0.448 1 1 v 2.428 C 46 20.48 45.552 20.928 45 20.928 z" style="stroke: none; stroke-width: 1; stroke-dasharray: none; stroke-linecap: butt; stroke-linejoin: miter; stroke-miterlimit: 10; fill: rgb(0,0,0); fill-rule: nonzero; opacity: 1;" transform=" matrix(1 0 0 1 0 0) " stroke-linecap="round" />
	<path d="M 45 42.101 c -0.552 0 -1 -0.448 -1 -1 v -2.428 c 0 -0.552 0.448 -1 1 -1 s 1 0.448 1 1 v 2.428 C 46 41.653 45.552 42.101 45 42.101 z" style="stroke: none; stroke-width: 1; stroke-dasharray: none; stroke-linecap: butt; stroke-linejoin: miter; stroke-miterlimit: 10; fill: rgb(0,0,0); fill-rule: nonzero; opacity: 1;" transform=" matrix(1 0 0 1 0 0) " stroke-linecap="round" />
	<path d="M 35.627 30.301 h -2.428 c -0.552 0 -1 -0.448 -1 -1 s 0.448 -1 1 -1 h 2.428 c 0.552 0 1 0.448 1 1 S 36.18 30.301 35.627 30.301 z" style="stroke: none; stroke-width: 1; stroke-dasharray: none; stroke-linecap: butt; stroke-linejoin: miter; stroke-miterlimit: 10; fill: rgb(0,0,0); fill-rule: nonzero; opacity: 1;" transform=" matrix(1 0 0 1 0 0) " stroke-linecap="round" />
	<path d="M 56.801 30.301 h -2.428 c -0.553 0 -1 -0.448 -1 -1 s 0.447 -1 1 -1 h 2.428 c 0.553 0 1 0.448 1 1 S 57.354 30.301 56.801 30.301 z" style="stroke: none; stroke-width: 1; stroke-dasharray: none; stroke-linecap: butt; stroke-linejoin: miter; stroke-miterlimit: 10; fill: rgb(0,0,0); fill-rule: nonzero; opacity: 1;" transform=" matrix(1 0 0 1 0 0) " stroke-linecap="round" />
	<path d="M 51.627 23.673 c -0.256 0 -0.512 -0.098 -0.707 -0.293 c -0.391 -0.391 -0.391 -1.024 0 -1.415 l 1.718 -1.717 c 0.391 -0.39 1.023 -0.39 1.414 0 s 0.391 1.024 0 1.415 l -1.718 1.717 C 52.139 23.576 51.883 23.673 51.627 23.673 z" style="stroke: none; stroke-width: 1; stroke-dasharray: none; stroke-linecap: butt; stroke-linejoin: miter; stroke-miterlimit: 10; fill: rgb(0,0,0); fill-rule: nonzero; opacity: 1;" transform=" matrix(1 0 0 1 0 0) " stroke-linecap="round" />
	<path d="M 36.656 38.645 c -0.256 0 -0.512 -0.098 -0.707 -0.293 c -0.391 -0.391 -0.391 -1.023 0 -1.414 l 1.717 -1.717 c 0.391 -0.391 1.023 -0.391 1.414 0 s 0.391 1.023 0 1.414 l -1.717 1.717 C 37.167 38.547 36.912 38.645 36.656 38.645 z" style="stroke: none; stroke-width: 1; stroke-dasharray: none; stroke-linecap: butt; stroke-linejoin: miter; stroke-miterlimit: 10; fill: rgb(0,0,0); fill-rule: nonzero; opacity: 1;" transform=" matrix(1 0 0 1 0 0) " stroke-linecap="round" />
	<path d="M 38.373 23.673 c -0.256 0 -0.512 -0.098 -0.707 -0.293 l -1.717 -1.717 c -0.391 -0.391 -0.391 -1.023 0 -1.414 s 1.023 -0.391 1.414 0 l 1.717 1.717 c 0.391 0.391 0.391 1.023 0 1.414 C 38.884 23.576 38.628 23.673 38.373 23.673 z" style="stroke: none; stroke-width: 1; stroke-dasharray: none; stroke-linecap: butt; stroke-linejoin: miter; stroke-miterlimit: 10; fill: rgb(0,0,0); fill-rule: nonzero; opacity: 1;" transform=" matrix(1 0 0 1 0 0) " stroke-linecap="round" />
	<path d="M 53.345 38.645 c -0.256 0 -0.512 -0.098 -0.707 -0.293 l -1.718 -1.717 c -0.391 -0.39 -0.391 -1.023 0 -1.414 s 1.023 -0.391 1.414 0 l 1.718 1.717 c 0.391 0.39 0.391 1.023 0 1.414 C 53.856 38.547 53.601 38.645 53.345 38.645 z" style="stroke: none; stroke-width: 1; stroke-dasharray: none; stroke-linecap: butt; stroke-linejoin: miter; stroke-miterlimit: 10; fill: rgb(0,0,0); fill-rule: nonzero; opacity: 1;" transform=" matrix(1 0 0 1 0 0) " stroke-linecap="round" />
	<path d="M 56.801 55.036 H 33.199 c -0.552 0 -1 -0.447 -1 -1 s 0.448 -1 1 -1 h 23.602 c 0.553 0 1 0.447 1 1 S 57.354 55.036 56.801 55.036 z" style="stroke: none; stroke-width: 1; stroke-dasharray: none; stroke-linecap: butt; stroke-linejoin: miter; stroke-miterlimit: 10; fill: rgb(0,0,0); fill-rule: nonzero; opacity: 1;" transform=" matrix(1 0 0 1 0 0) " stroke-linecap="round" />
	<path d="M 56.801 64.268 H 33.199 c -0.552 0 -1 -0.447 -1 -1 s 0.448 -1 1 -1 h 23.602 c 0.553 0 1 0.447 1 1 S 57.354 64.268 56.801 64.268 z" style="stroke: none; stroke-width: 1; stroke-dasharray: none; stroke-linecap: butt; stroke-linejoin: miter; stroke-miterlimit: 10; fill: rgb(0,0,0); fill-rule: nonzero; opacity: 1;" transform=" matrix(1 0 0 1 0 0) " stroke-linecap="round" />
	<path d="M 56.801 73.5 H 33.199 c -0.552 0 -1 -0.447 -1 -1 s 0.448 -1 1 -1 h 23.602 c 0.553 0 1 0.447 1 1 S 57.354 73.5 56.801 73.5 z" style="stroke: none; stroke-width: 1; stroke-dasharray: none; stroke-linecap: butt; stroke-linejoin: miter; stroke-miterlimit: 10; fill: rgb(0,0,0); fill-rule: nonzero; opacity: 1;" transform=" matrix(1 0 0 1 0 0) " stroke-linecap="round" />
</g>
</svg>