<svg xmlns="http://www.w3.org/2000/svg" xmlns:xlink="http://www.w3.org/1999/xlink" version="1.1" width="256" height="256" viewBox="0 0 256 256" xml:space="preserve">

<defs>
</defs>
<g style="stroke: none; stroke-width: 0; stroke-dasharray: none; stroke-linecap: butt; stroke-linejoin: miter; stroke-miterlimit: 10; fill: none; fill-rule: nonzero; opacity: 1;" transform="translate(1.4065934065934016 1.4065934065934016) scale(2.81 2.81)" >
	<rect x="1" y="1" rx="0" ry="0" width="44" height="44" style="stroke: none; stroke-width: 1; stroke-dasharray: none; stroke-linecap: butt; stroke-linejoin: miter; stroke-miterlimit: 10; fill: rgb(255,190,0); fill-rule: nonzero; opacity: 1;" transform=" matrix(1 0 0 1 0 0) "/>
	<rect x="45" y="1" rx="0" ry="0" width="44" height="44" style="stroke: none; stroke-width: 1; stroke-dasharray: none; stroke-linecap: butt; stroke-linejoin: miter; stroke-miterlimit: 10; fill: rgb(123,216,247); fill-rule: nonzero; opacity: 1;" transform=" matrix(1 0 0 1 0 0) "/>
	<rect x="1" y="45" rx="0" ry="0" width="44" height="44" style="stroke: none; stroke-width: 1; stroke-dasharray: none; stroke-linecap: butt; stroke-linejoin: miter; stroke-miterlimit: 10; fill: rgb(129,188,218); fill-rule: nonzero; opacity: 1;" transform=" matrix(1 0 0 1 0 0) "/>
	<rect x="45" y="45" rx="0" ry="0" width="44" height="44" style="stroke: none; stroke-width: 1; stroke-dasharray: none; stroke-linecap: butt; stroke-linejoin: miter; stroke-miterlimit: 10; fill: rgb(67,144,179); fill-rule: nonzero; opacity: 1;" transform=" matrix(1 0 0 1 0 0) "/>
	<path d="M 46 0 h -2 H 0 v 44 v 2 v 44 h 44 h 2 h 44 V 46 v -2 V 0 H 46 z M 2 2 h 42 v 42 H 2 V 2 z M 44 88 H 2 V 46 h 42 V 88 z M 88 88 H 46 V 46 h 42 V 88 z M 46 44 V 2 h 42 v 42 H 46 z" style="stroke: none; stroke-width: 1; stroke-dasharray: none; stroke-linecap: butt; stroke-linejoin: miter; stroke-miterlimit: 10; fill: rgb(0,0,0); fill-rule: nonzero; opacity: 1;" transform=" matrix(1 0 0 1 0 0) " stroke-linecap="round" />
	<path d="M 23 31.325 c -4.687 0 -8.5 -3.813 -8.5 -8.5 s 3.813 -8.5 8.5 -8.5 s 8.5 3.813 8.5 8.5 S 27.687 31.325 23 31.325 z M 23 16.325 c -3.584 0 -6.5 2.916 -6.5 6.5 s 2.916 6.5 6.5 6.5 s 6.5 -2.916 6.5 -6.5 S 26.584 16.325 23 16.325 z" style="stroke: none; stroke-width: 1; stroke-dasharray: none; stroke-linecap: butt; stroke-linejoin: miter; stroke-miterlimit: 10; fill: rgb(0,0,0); fill-rule: nonzero; opacity: 1;" transform=" matrix(1 0 0 1 0 0) " stroke-linecap="round" />
	<path d="M 23 11.911 c -0.552 0 -1 -0.448 -1 -1 V 7.825 c 0 -0.552 0.448 -1 1 -1 s 1 0.448 1 1 v 3.086 C 24 11.463 23.552 11.911 23 11.911 z" style="stroke: none; stroke-width: 1; stroke-dasharray: none; stroke-linecap: butt; stroke-linejoin: miter; stroke-miterlimit: 10; fill: rgb(0,0,0); fill-rule: nonzero; opacity: 1;" transform=" matrix(1 0 0 1 0 0) " stroke-linecap="round" />
	<path d="M 23 38.825 c -0.552 0 -1 -0.448 -1 -1 v -3.086 c 0 -0.552 0.448 -1 1 -1 s 1 0.448 1 1 v 3.086 C 24 38.377 23.552 38.825 23 38.825 z" style="stroke: none; stroke-width: 1; stroke-dasharray: none; stroke-linecap: butt; stroke-linejoin: miter; stroke-miterlimit: 10; fill: rgb(0,0,0); fill-rule: nonzero; opacity: 1;" transform=" matrix(1 0 0 1 0 0) " stroke-linecap="round" />
	<path d="M 11.086 23.825 H 8 c -0.552 0 -1 -0.448 -1 -1 s 0.448 -1 1 -1 h 3.086 c 0.552 0 1 0.448 1 1 S 11.639 23.825 11.086 23.825 z" style="stroke: none; stroke-width: 1; stroke-dasharray: none; stroke-linecap: butt; stroke-linejoin: miter; stroke-miterlimit: 10; fill: rgb(0,0,0); fill-rule: nonzero; opacity: 1;" transform=" matrix(1 0 0 1 0 0) " stroke-linecap="round" />
	<path d="M 38 23.825 h -3.086 c -0.552 0 -1 -0.448 -1 -1 s 0.448 -1 1 -1 H 38 c 0.552 0 1 0.448 1 1 S 38.552 23.825 38 23.825 z" style="stroke: none; stroke-width: 1; stroke-dasharray: none; stroke-linecap: butt; stroke-linejoin: miter; stroke-miterlimit: 10; fill: rgb(0,0,0); fill-rule: nonzero; opacity: 1;" transform=" matrix(1 0 0 1 0 0) " stroke-linecap="round" />
	<path d="M 31.424 15.4 c -0.256 0 -0.512 -0.098 -0.707 -0.293 c -0.391 -0.391 -0.391 -1.023 0 -1.414 l 2.182 -2.182 c 0.391 -0.391 1.023 -0.391 1.414 0 s 0.391 1.023 0 1.414 l -2.182 2.182 C 31.936 15.303 31.68 15.4 31.424 15.4 z" style="stroke: none; stroke-width: 1; stroke-dasharray: none; stroke-linecap: butt; stroke-linejoin: miter; stroke-miterlimit: 10; fill: rgb(0,0,0); fill-rule: nonzero; opacity: 1;" transform=" matrix(1 0 0 1 0 0) " stroke-linecap="round" />
	<path d="M 12.394 34.431 c -0.256 0 -0.512 -0.098 -0.707 -0.293 c -0.391 -0.391 -0.391 -1.023 0 -1.414 l 2.182 -2.182 c 0.391 -0.391 1.023 -0.391 1.414 0 s 0.391 1.023 0 1.414 l -2.182 2.182 C 12.905 34.333 12.649 34.431 12.394 34.431 z" style="stroke: none; stroke-width: 1; stroke-dasharray: none; stroke-linecap: butt; stroke-linejoin: miter; stroke-miterlimit: 10; fill: rgb(0,0,0); fill-rule: nonzero; opacity: 1;" transform=" matrix(1 0 0 1 0 0) " stroke-linecap="round" />
	<path d="M 14.576 15.4 c -0.256 0 -0.512 -0.098 -0.707 -0.293 l -2.182 -2.182 c -0.391 -0.391 -0.391 -1.023 0 -1.414 s 1.023 -0.391 1.414 0 l 2.182 2.182 c 0.391 0.391 0.391 1.023 0 1.414 C 15.087 15.303 14.832 15.4 14.576 15.4 z" style="stroke: none; stroke-width: 1; stroke-dasharray: none; stroke-linecap: butt; stroke-linejoin: miter; stroke-miterlimit: 10; fill: rgb(0,0,0); fill-rule: nonzero; opacity: 1;" transform=" matrix(1 0 0 1 0 0) " stroke-linecap="round" />
	<path d="M 33.606 34.431 c -0.256 0 -0.512 -0.098 -0.707 -0.293 l -2.182 -2.182 c -0.391 -0.391 -0.391 -1.023 0 -1.414 s 1.023 -0.391 1.414 0 l 2.182 2.182 c 0.391 0.391 0.391 1.023 0 1.414 C 34.118 34.333 33.862 34.431 33.606 34.431 z" style="stroke: none; stroke-width: 1; stroke-dasharray: none; stroke-linecap: butt; stroke-linejoin: miter; stroke-miterlimit: 10; fill: rgb(0,0,0); fill-rule: nonzero; opacity: 1;" transform=" matrix(1 0 0 1 0 0) " stroke-linecap="round" />
	<path d="M 67 36.325 c -4.228 0 -7.667 -3.855 -7.667 -8.594 c 0 -3.95 1.861 -6.961 3.662 -9.873 c 1.545 -2.5 3.005 -4.86 3.005 -7.533 c 0 -0.552 0.447 -1 1 -1 s 1 0.448 1 1 c 0 2.673 1.46 5.034 3.005 7.533 c 1.801 2.912 3.662 5.923 3.662 9.873 C 74.667 32.47 71.228 36.325 67 36.325 z M 67 14.749 c -0.628 1.449 -1.473 2.816 -2.304 4.161 c -1.653 2.674 -3.363 5.439 -3.363 8.821 c 0 3.636 2.542 6.594 5.667 6.594 s 5.667 -2.958 5.667 -6.594 c 0 -3.382 -1.71 -6.147 -3.363 -8.821 C 68.473 17.565 67.628 16.198 67 14.749 z" style="stroke: none; stroke-width: 1; stroke-dasharray: none; stroke-linecap: butt; stroke-linejoin: miter; stroke-miterlimit: 10; fill: rgb(0,0,0); fill-rule: nonzero; opacity: 1;" transform=" matrix(1 0 0 1 0 0) " stroke-linecap="round" />
	<path d="M 35.5 64.835 h -1.011 l 0.241 -0.255 c 0.379 -0.401 0.362 -1.034 -0.04 -1.414 c -0.402 -0.379 -1.033 -0.362 -1.414 0.039 l -1.542 1.63 h -3.158 l -1.923 -3.33 l 1.579 -2.735 l 2.183 -0.52 c 0.537 -0.128 0.869 -0.667 0.741 -1.204 c -0.128 -0.538 -0.666 -0.867 -1.205 -0.741 l -0.343 0.082 l 0.506 -0.877 c 0.276 -0.479 0.112 -1.09 -0.366 -1.366 c -0.48 -0.276 -1.09 -0.111 -1.366 0.366 l -0.506 0.876 l -0.1 -0.337 c -0.158 -0.53 -0.717 -0.83 -1.244 -0.673 c -0.529 0.157 -0.831 0.714 -0.673 1.243 l 0.641 2.151 l -1.579 2.735 h -3.845 l -1.579 -2.735 l 0.641 -2.151 c 0.158 -0.529 -0.144 -1.086 -0.673 -1.243 c -0.53 -0.157 -1.086 0.143 -1.244 0.673 l -0.1 0.337 l -0.506 -0.876 c -0.277 -0.479 -0.889 -0.643 -1.366 -0.366 c -0.479 0.276 -0.642 0.888 -0.366 1.366 l 0.506 0.877 l -0.343 -0.082 c -0.534 -0.126 -1.076 0.203 -1.205 0.741 c -0.128 0.537 0.204 1.076 0.741 1.204 l 2.183 0.52 l 1.579 2.735 l -1.923 3.33 h -3.158 l -1.542 -1.63 c -0.38 -0.401 -1.013 -0.418 -1.414 -0.039 c -0.401 0.38 -0.419 1.013 -0.04 1.414 l 0.241 0.255 H 10.5 c -0.552 0 -1 0.447 -1 1 s 0.448 1 1 1 h 1.011 l -0.242 0.256 c -0.379 0.401 -0.362 1.035 0.04 1.414 c 0.193 0.183 0.44 0.273 0.687 0.273 c 0.265 0 0.53 -0.104 0.727 -0.313 l 1.542 -1.631 h 3.158 l 1.923 3.33 l -1.579 2.736 l -2.182 0.52 c -0.537 0.128 -0.869 0.667 -0.741 1.204 c 0.109 0.46 0.52 0.769 0.972 0.769 c 0.077 0 0.155 -0.009 0.233 -0.027 l 0.342 -0.081 l -0.505 0.875 c -0.276 0.479 -0.112 1.09 0.366 1.366 c 0.158 0.091 0.33 0.134 0.499 0.134 c 0.346 0 0.682 -0.18 0.867 -0.5 l 0.505 -0.875 l 0.101 0.337 c 0.129 0.435 0.527 0.715 0.958 0.715 c 0.095 0 0.191 -0.014 0.286 -0.042 c 0.529 -0.157 0.831 -0.714 0.673 -1.243 L 19.498 73.9 l 1.579 -2.735 h 3.845 l 1.579 2.735 l -0.641 2.151 c -0.158 0.529 0.144 1.086 0.673 1.243 c 0.095 0.028 0.191 0.042 0.286 0.042 c 0.431 0 0.829 -0.28 0.958 -0.715 l 0.101 -0.337 l 0.505 0.875 c 0.186 0.321 0.521 0.5 0.867 0.5 c 0.169 0 0.342 -0.043 0.499 -0.134 c 0.479 -0.276 0.642 -0.888 0.366 -1.366 l -0.505 -0.875 l 0.342 0.081 c 0.078 0.019 0.156 0.027 0.233 0.027 c 0.452 0 0.862 -0.309 0.972 -0.769 c 0.128 -0.537 -0.204 -1.076 -0.741 -1.204 l -2.182 -0.52 l -1.579 -2.736 l 1.923 -3.33 h 3.158 l 1.542 1.631 c 0.197 0.208 0.461 0.313 0.727 0.313 c 0.247 0 0.494 -0.091 0.687 -0.273 c 0.401 -0.379 0.419 -1.013 0.04 -1.414 l -0.242 -0.256 H 35.5 c 0.552 0 1 -0.447 1 -1 S 36.052 64.835 35.5 64.835 z M 24.923 69.165 h -3.846 l -1.922 -3.33 l 1.922 -3.33 h 3.846 l 1.922 3.33 L 24.923 69.165 z" style="stroke: none; stroke-width: 1; stroke-dasharray: none; stroke-linecap: butt; stroke-linejoin: miter; stroke-miterlimit: 10; fill: rgb(0,0,0); fill-rule: nonzero; opacity: 1;" transform=" matrix(1 0 0 1 0 0) " stroke-linecap="round" />
	<path d="M 70.693 80.243 c -0.553 0 -1 -0.447 -1 -1 s 0.447 -1 1 -1 c 1.731 0 3.14 -1.409 3.14 -3.141 s -1.408 -3.141 -3.14 -3.141 H 58.5 c -0.553 0 -1 -0.447 -1 -1 s 0.447 -1 1 -1 h 12.193 c 2.834 0 5.14 2.306 5.14 5.141 S 73.527 80.243 70.693 80.243 z" style="stroke: none; stroke-width: 1; stroke-dasharray: none; stroke-linecap: butt; stroke-linejoin: miter; stroke-miterlimit: 10; fill: rgb(0,0,0); fill-rule: nonzero; opacity: 1;" transform=" matrix(1 0 0 1 0 0) " stroke-linecap="round" />
	<path d="M 75.359 67.859 H 54.5 c -0.553 0 -1 -0.447 -1 -1 s 0.447 -1 1 -1 h 20.859 c 1.731 0 3.141 -1.409 3.141 -3.141 s -1.409 -3.141 -3.141 -3.141 c -0.553 0 -1 -0.447 -1 -1 s 0.447 -1 1 -1 c 2.835 0 5.141 2.306 5.141 5.141 S 78.194 67.859 75.359 67.859 z" style="stroke: none; stroke-width: 1; stroke-dasharray: none; stroke-linecap: butt; stroke-linejoin: miter; stroke-miterlimit: 10; fill: rgb(0,0,0); fill-rule: nonzero; opacity: 1;" transform=" matrix(1 0 0 1 0 0) " stroke-linecap="round" />
	<path d="M 71.417 63.841 H 60.466 c -0.553 0 -1 -0.447 -1 -1 s 0.447 -1 1 -1 h 10.951 c 0.553 0 1 0.447 1 1 S 71.97 63.841 71.417 63.841 z" style="stroke: none; stroke-width: 1; stroke-dasharray: none; stroke-linecap: butt; stroke-linejoin: miter; stroke-miterlimit: 10; fill: rgb(0,0,0); fill-rule: nonzero; opacity: 1;" transform=" matrix(1 0 0 1 0 0) " stroke-linecap="round" />
</g>
</svg>