<svg xmlns="http://www.w3.org/2000/svg" xmlns:xlink="http://www.w3.org/1999/xlink" version="1.1" width="256" height="256" viewBox="0 0 256 256" xml:space="preserve">

<defs>
</defs>
<g style="stroke: none; stroke-width: 0; stroke-dasharray: none; stroke-linecap: butt; stroke-linejoin: miter; stroke-miterlimit: 10; fill: none; fill-rule: nonzero; opacity: 1;" transform="translate(1.4065934065934016 1.4065934065934016) scale(2.81 2.81)" >
	<path d="M 70.875 89 H 19.125 c -4.139 0 -7.494 -3.355 -7.494 -7.494 V 8.494 C 11.632 4.355 14.987 1 19.125 1 h 51.749 c 4.139 0 7.494 3.355 7.494 7.494 v 73.012 C 78.368 85.645 75.013 89 70.875 89 z" style="stroke: none; stroke-width: 1; stroke-dasharray: none; stroke-linecap: butt; stroke-linejoin: miter; stroke-miterlimit: 10; fill: rgb(129,188,218); fill-rule: nonzero; opacity: 1;" transform=" matrix(1 0 0 1 0 0) " stroke-linecap="round" />
	<path d="M 23.982 1 h 0.932 c 1.874 0 3.536 1.204 4.12 2.985 l 0 0 c 0.72 2.198 2.771 3.684 5.083 3.684 h 22.301 c 2.313 0 4.363 -1.486 5.083 -3.684 l 0 0 C 62.085 2.204 63.747 1 65.621 1 h 0.397" style="stroke: none; stroke-width: 1; stroke-dasharray: none; stroke-linecap: butt; stroke-linejoin: miter; stroke-miterlimit: 10; fill: rgb(67,144,179); fill-rule: nonzero; opacity: 1;" transform=" matrix(1 0 0 1 0 0) " stroke-linecap="round" />
	<path d="M 70.875 90 h -51.75 c -4.684 0 -8.494 -3.811 -8.494 -8.494 V 8.494 C 10.631 3.81 14.442 0 19.125 0 h 51.75 c 4.684 0 8.493 3.81 8.493 8.494 v 73.012 C 79.368 86.189 75.559 90 70.875 90 z M 19.125 2 c -3.581 0 -6.494 2.913 -6.494 6.494 v 73.012 c 0 3.581 2.913 6.494 6.494 6.494 h 51.75 c 3.58 0 6.493 -2.913 6.493 -6.494 V 8.494 C 77.368 4.913 74.455 2 70.875 2 H 19.125 z" style="stroke: none; stroke-width: 1; stroke-dasharray: none; stroke-linecap: butt; stroke-linejoin: miter; stroke-miterlimit: 10; fill: rgb(0,0,0); fill-rule: nonzero; opacity: 1;" transform=" matrix(1 0 0 1 0 0) " stroke-linecap="round" />
	<path d="M 56.418 8.669 H 34.117 c -2.752 0 -5.177 -1.757 -6.034 -4.373 C 27.633 2.923 26.36 2 24.915 2 h -0.933 c -0.552 0 -1 -0.448 -1 -1 s 0.448 -1 1 -1 h 0.933 c 2.312 0 4.35 1.477 5.069 3.674 c 0.587 1.792 2.248 2.996 4.133 2.996 h 22.301 c 1.885 0 3.546 -1.204 4.133 -2.995 C 61.271 1.477 63.309 0 65.621 0 h 0.396 c 0.553 0 1 0.448 1 1 s -0.447 1 -1 1 h -0.396 c -1.445 0 -2.72 0.923 -3.17 2.297 C 61.595 6.912 59.17 8.669 56.418 8.669 z" style="stroke: none; stroke-width: 1; stroke-dasharray: none; stroke-linecap: butt; stroke-linejoin: miter; stroke-miterlimit: 10; fill: rgb(0,0,0); fill-rule: nonzero; opacity: 1;" transform=" matrix(1 0 0 1 0 0) " stroke-linecap="round" />
	<circle cx="30.694000000000003" cy="30.964000000000002" r="5.274" style="stroke: none; stroke-width: 1; stroke-dasharray: none; stroke-linecap: butt; stroke-linejoin: miter; stroke-miterlimit: 10; fill: rgb(255,190,0); fill-rule: nonzero; opacity: 1;" transform="  matrix(1 0 0 1 0 0) "/>
	<path d="M 30.698 37.241 c -3.459 0 -6.274 -2.814 -6.274 -6.274 c 0 -3.459 2.814 -6.274 6.274 -6.274 c 3.46 0 6.274 2.814 6.274 6.274 C 36.972 34.426 34.158 37.241 30.698 37.241 z M 30.698 26.692 c -2.356 0 -4.274 1.917 -4.274 4.274 c 0 2.357 1.917 4.274 4.274 4.274 c 2.357 0 4.274 -1.917 4.274 -4.274 C 34.972 28.61 33.055 26.692 30.698 26.692 z" style="stroke: none; stroke-width: 1; stroke-dasharray: none; stroke-linecap: butt; stroke-linejoin: miter; stroke-miterlimit: 10; fill: rgb(0,0,0); fill-rule: nonzero; opacity: 1;" transform=" matrix(1 0 0 1 0 0) " stroke-linecap="round" />
	<path d="M 30.698 23.588 c -0.552 0 -1 -0.448 -1 -1 v -2.17 c 0 -0.552 0.448 -1 1 -1 s 1 0.448 1 1 v 2.17 C 31.698 23.141 31.25 23.588 30.698 23.588 z" style="stroke: none; stroke-width: 1; stroke-dasharray: none; stroke-linecap: butt; stroke-linejoin: miter; stroke-miterlimit: 10; fill: rgb(0,0,0); fill-rule: nonzero; opacity: 1;" transform=" matrix(1 0 0 1 0 0) " stroke-linecap="round" />
	<path d="M 30.698 42.515 c -0.552 0 -1 -0.448 -1 -1 v -2.17 c 0 -0.552 0.448 -1 1 -1 s 1 0.448 1 1 v 2.17 C 31.698 42.067 31.25 42.515 30.698 42.515 z" style="stroke: none; stroke-width: 1; stroke-dasharray: none; stroke-linecap: butt; stroke-linejoin: miter; stroke-miterlimit: 10; fill: rgb(0,0,0); fill-rule: nonzero; opacity: 1;" transform=" matrix(1 0 0 1 0 0) " stroke-linecap="round" />
	<path d="M 22.32 31.966 h -2.17 c -0.552 0 -1 -0.448 -1 -1 s 0.448 -1 1 -1 h 2.17 c 0.552 0 1 0.448 1 1 S 22.872 31.966 22.32 31.966 z" style="stroke: none; stroke-width: 1; stroke-dasharray: none; stroke-linecap: butt; stroke-linejoin: miter; stroke-miterlimit: 10; fill: rgb(0,0,0); fill-rule: nonzero; opacity: 1;" transform=" matrix(1 0 0 1 0 0) " stroke-linecap="round" />
	<path d="M 41.246 31.966 h -2.17 c -0.552 0 -1 -0.448 -1 -1 s 0.448 -1 1 -1 h 2.17 c 0.552 0 1 0.448 1 1 S 41.798 31.966 41.246 31.966 z" style="stroke: none; stroke-width: 1; stroke-dasharray: none; stroke-linecap: butt; stroke-linejoin: miter; stroke-miterlimit: 10; fill: rgb(0,0,0); fill-rule: nonzero; opacity: 1;" transform=" matrix(1 0 0 1 0 0) " stroke-linecap="round" />
	<path d="M 36.622 26.042 c -0.256 0 -0.512 -0.098 -0.707 -0.293 c -0.391 -0.391 -0.391 -1.023 0 -1.414 l 1.535 -1.535 c 0.391 -0.391 1.023 -0.391 1.414 0 s 0.391 1.023 0 1.414 l -1.535 1.535 C 37.134 25.945 36.878 26.042 36.622 26.042 z" style="stroke: none; stroke-width: 1; stroke-dasharray: none; stroke-linecap: butt; stroke-linejoin: miter; stroke-miterlimit: 10; fill: rgb(0,0,0); fill-rule: nonzero; opacity: 1;" transform=" matrix(1 0 0 1 0 0) " stroke-linecap="round" />
	<path d="M 23.239 39.425 c -0.256 0 -0.512 -0.098 -0.707 -0.293 c -0.391 -0.391 -0.391 -1.023 0 -1.414 l 1.535 -1.535 c 0.391 -0.391 1.023 -0.391 1.414 0 s 0.391 1.023 0 1.414 l -1.535 1.535 C 23.751 39.328 23.495 39.425 23.239 39.425 z" style="stroke: none; stroke-width: 1; stroke-dasharray: none; stroke-linecap: butt; stroke-linejoin: miter; stroke-miterlimit: 10; fill: rgb(0,0,0); fill-rule: nonzero; opacity: 1;" transform=" matrix(1 0 0 1 0 0) " stroke-linecap="round" />
	<path d="M 24.774 26.042 c -0.256 0 -0.512 -0.098 -0.707 -0.293 l -1.535 -1.535 c -0.391 -0.391 -0.391 -1.023 0 -1.414 s 1.023 -0.391 1.414 0 l 1.535 1.535 c 0.391 0.391 0.391 1.023 0 1.414 C 25.286 25.945 25.03 26.042 24.774 26.042 z" style="stroke: none; stroke-width: 1; stroke-dasharray: none; stroke-linecap: butt; stroke-linejoin: miter; stroke-miterlimit: 10; fill: rgb(0,0,0); fill-rule: nonzero; opacity: 1;" transform=" matrix(1 0 0 1 0 0) " stroke-linecap="round" />
	<path d="M 38.157 39.425 c -0.256 0 -0.512 -0.098 -0.707 -0.293 l -1.535 -1.535 c -0.391 -0.391 -0.391 -1.023 0 -1.414 s 1.023 -0.391 1.414 0 l 1.535 1.535 c 0.391 0.391 0.391 1.023 0 1.414 C 38.668 39.328 38.413 39.425 38.157 39.425 z" style="stroke: none; stroke-width: 1; stroke-dasharray: none; stroke-linecap: butt; stroke-linejoin: miter; stroke-miterlimit: 10; fill: rgb(0,0,0); fill-rule: nonzero; opacity: 1;" transform=" matrix(1 0 0 1 0 0) " stroke-linecap="round" />
	<path d="M 41.246 54.077 H 20.149 c -0.552 0 -1 -0.447 -1 -1 s 0.448 -1 1 -1 h 21.097 c 0.552 0 1 0.447 1 1 S 41.798 54.077 41.246 54.077 z" style="stroke: none; stroke-width: 1; stroke-dasharray: none; stroke-linecap: butt; stroke-linejoin: miter; stroke-miterlimit: 10; fill: rgb(0,0,0); fill-rule: nonzero; opacity: 1;" transform=" matrix(1 0 0 1 0 0) " stroke-linecap="round" />
	<path d="M 41.246 62.329 H 20.149 c -0.552 0 -1 -0.447 -1 -1 s 0.448 -1 1 -1 h 21.097 c 0.552 0 1 0.447 1 1 S 41.798 62.329 41.246 62.329 z" style="stroke: none; stroke-width: 1; stroke-dasharray: none; stroke-linecap: butt; stroke-linejoin: miter; stroke-miterlimit: 10; fill: rgb(0,0,0); fill-rule: nonzero; opacity: 1;" transform=" matrix(1 0 0 1 0 0) " stroke-linecap="round" />
	<path d="M 41.246 70.582 H 20.149 c -0.552 0 -1 -0.447 -1 -1 s 0.448 -1 1 -1 h 21.097 c 0.552 0 1 0.447 1 1 S 41.798 70.582 41.246 70.582 z" style="stroke: none; stroke-width: 1; stroke-dasharray: none; stroke-linecap: butt; stroke-linejoin: miter; stroke-miterlimit: 10; fill: rgb(0,0,0); fill-rule: nonzero; opacity: 1;" transform=" matrix(1 0 0 1 0 0) " stroke-linecap="round" />
	<path d="M 69.851 54.077 H 48.754 c -0.553 0 -1 -0.447 -1 -1 s 0.447 -1 1 -1 h 21.097 c 0.553 0 1 0.447 1 1 S 70.403 54.077 69.851 54.077 z" style="stroke: none; stroke-width: 1; stroke-dasharray: none; stroke-linecap: butt; stroke-linejoin: miter; stroke-miterlimit: 10; fill: rgb(0,0,0); fill-rule: nonzero; opacity: 1;" transform=" matrix(1 0 0 1 0 0) " stroke-linecap="round" />
	<path d="M 69.851 62.329 H 48.754 c -0.553 0 -1 -0.447 -1 -1 s 0.447 -1 1 -1 h 21.097 c 0.553 0 1 0.447 1 1 S 70.403 62.329 69.851 62.329 z" style="stroke: none; stroke-width: 1; stroke-dasharray: none; stroke-linecap: butt; stroke-linejoin: miter; stroke-miterlimit: 10; fill: rgb(0,0,0); fill-rule: nonzero; opacity: 1;" transform=" matrix(1 0 0 1 0 0) " stroke-linecap="round" />
	<path d="M 69.851 70.582 H 48.754 c -0.553 0 -1 -0.447 -1 -1 s 0.447 -1 1 -1 h 21.097 c 0.553 0 1 0.447 1 1 S 70.403 70.582 69.851 70.582 z" style="stroke: none; stroke-width: 1; stroke-dasharray: none; stroke-linecap: butt; stroke-linejoin: miter; stroke-miterlimit: 10; fill: rgb(0,0,0); fill-rule: nonzero; opacity: 1;" transform=" matrix(1 0 0 1 0 0) " stroke-linecap="round" />
	<path d="M 50.979 30.279 c -0.008 -0.12 -0.014 -0.242 -0.014 -0.364 c 0 -2.986 2.421 -5.407 5.407 -5.407 c 2.16 0 4.024 1.267 4.89 3.098 c 0.652 -0.463 1.447 -0.738 2.308 -0.738 c 1.991 0 3.638 1.459 3.94 3.365 c 1.371 0.375 2.38 1.627 2.38 3.117 c 0 1.787 -1.448 3.235 -3.235 3.235 H 51.989 c -1.787 0 -3.235 -1.448 -3.235 -3.235 C 48.754 31.918 49.687 30.704 50.979 30.279 z" style="stroke: none; stroke-width: 1; stroke-dasharray: none; stroke-linecap: butt; stroke-linejoin: miter; stroke-miterlimit: 10; fill: rgb(67,144,179); fill-rule: nonzero; opacity: 1;" transform=" matrix(1 0 0 1 0 0) " stroke-linecap="round" />
	<path d="M 66.655 37.586 H 51.988 c -2.335 0 -4.234 -1.9 -4.234 -4.235 c 0 -1.577 0.866 -2.994 2.218 -3.723 c 0.151 -3.4 2.964 -6.119 6.4 -6.119 c 2.107 0 4.075 1.053 5.261 2.752 c 0.609 -0.258 1.265 -0.392 1.937 -0.392 c 2.263 0 4.192 1.486 4.797 3.611 c 1.513 0.668 2.524 2.182 2.524 3.871 C 70.891 35.686 68.99 37.586 66.655 37.586 z M 56.372 25.509 c -2.43 0 -4.406 1.977 -4.406 4.406 c 0 0.101 0.005 0.2 0.012 0.3 c 0.029 0.455 -0.253 0.872 -0.686 1.015 c -0.92 0.302 -1.538 1.155 -1.538 2.122 c 0 1.232 1.002 2.235 2.234 2.235 h 14.667 c 1.232 0 2.235 -1.002 2.235 -2.235 c 0 -1.002 -0.676 -1.887 -1.645 -2.152 c -0.379 -0.104 -0.662 -0.42 -0.724 -0.809 c -0.231 -1.461 -1.474 -2.521 -2.953 -2.521 c -0.621 0 -1.219 0.191 -1.729 0.553 c -0.241 0.171 -0.549 0.227 -0.832 0.152 c -0.286 -0.075 -0.524 -0.272 -0.651 -0.54 C 59.632 26.5 58.067 25.509 56.372 25.509 z" style="stroke: none; stroke-width: 1; stroke-dasharray: none; stroke-linecap: butt; stroke-linejoin: miter; stroke-miterlimit: 10; fill: rgb(0,0,0); fill-rule: nonzero; opacity: 1;" transform=" matrix(1 0 0 1 0 0) " stroke-linecap="round" />
</g>
</svg>