<svg xmlns="http://www.w3.org/2000/svg" xmlns:xlink="http://www.w3.org/1999/xlink" version="1.1" width="256" height="256" viewBox="0 0 256 256" xml:space="preserve">

<defs>
</defs>
<g style="stroke: none; stroke-width: 0; stroke-dasharray: none; stroke-linecap: butt; stroke-linejoin: miter; stroke-miterlimit: 10; fill: none; fill-rule: nonzero; opacity: 1;" transform="translate(1.4065934065934016 1.4065934065934016) scale(2.81 2.81)" >
	<path d="M 59.115 51.962 H 4.167 C 2.418 51.962 1 53.38 1 55.129 c 0 1.749 1.418 3.167 3.167 3.167 h 54.948 c 4.254 0 7.716 3.461 7.716 7.715 c 0 4.254 -3.462 7.715 -7.716 7.715 c -1.749 0 -3.167 1.418 -3.167 3.167 s 1.418 3.167 3.167 3.167 c 7.748 0 14.05 -6.302 14.05 -14.049 C 73.165 58.265 66.862 51.962 59.115 51.962 z" style="stroke: none; stroke-width: 1; stroke-dasharray: none; stroke-linecap: butt; stroke-linejoin: miter; stroke-miterlimit: 10; fill: rgb(67,144,179); fill-rule: nonzero; opacity: 1;" transform=" matrix(1 0 0 1 0 0) " stroke-linecap="round" />
	<path d="M 74.95 38.038 H 4.167 C 2.418 38.038 1 36.62 1 34.871 c 0 -1.749 1.418 -3.167 3.167 -3.167 H 74.95 c 4.254 0 7.716 -3.461 7.716 -7.715 s -3.462 -7.715 -7.716 -7.715 c -1.749 0 -3.167 -1.418 -3.167 -3.167 s 1.418 -3.167 3.167 -3.167 c 7.748 0 14.05 6.302 14.05 14.049 C 89 31.735 82.698 38.038 74.95 38.038 z" style="stroke: none; stroke-width: 1; stroke-dasharray: none; stroke-linecap: butt; stroke-linejoin: miter; stroke-miterlimit: 10; fill: rgb(67,144,179); fill-rule: nonzero; opacity: 1;" transform=" matrix(1 0 0 1 0 0) " stroke-linecap="round" />
	<path d="M 59.114 81.062 c -2.298 0 -4.167 -1.869 -4.167 -4.167 s 1.869 -4.168 4.167 -4.168 c 3.703 0 6.716 -3.013 6.716 -6.715 c 0 -3.703 -3.013 -6.716 -6.716 -6.716 H 4.167 C 1.869 59.296 0 57.427 0 55.129 s 1.869 -4.167 4.167 -4.167 h 54.947 c 8.299 0 15.051 6.751 15.051 15.05 S 67.413 81.062 59.114 81.062 z M 4.167 52.962 C 2.972 52.962 2 53.934 2 55.129 s 0.972 2.167 2.167 2.167 h 54.947 c 4.806 0 8.716 3.91 8.716 8.716 s -3.91 8.715 -8.716 8.715 c -1.195 0 -2.167 0.973 -2.167 2.168 s 0.972 2.167 2.167 2.167 c 7.196 0 13.051 -5.854 13.051 -13.05 s -5.854 -13.05 -13.051 -13.05 H 4.167 z" style="stroke: none; stroke-width: 1; stroke-dasharray: none; stroke-linecap: butt; stroke-linejoin: miter; stroke-miterlimit: 10; fill: rgb(0,0,0); fill-rule: nonzero; opacity: 1;" transform=" matrix(1 0 0 1 0 0) " stroke-linecap="round" />
	<path d="M 74.95 39.038 H 4.167 C 1.869 39.038 0 37.169 0 34.871 s 1.869 -4.167 4.167 -4.167 H 74.95 c 3.703 0 6.716 -3.013 6.716 -6.716 c 0 -3.703 -3.013 -6.715 -6.716 -6.715 c -2.298 0 -4.167 -1.869 -4.167 -4.167 s 1.869 -4.167 4.167 -4.167 C 83.249 8.939 90 15.69 90 23.988 S 83.249 39.038 74.95 39.038 z M 4.167 32.704 C 2.972 32.704 2 33.676 2 34.871 s 0.972 2.167 2.167 2.167 H 74.95 c 7.195 0 13.05 -5.854 13.05 -13.05 c 0 -7.195 -5.854 -13.049 -13.05 -13.049 c -1.195 0 -2.167 0.972 -2.167 2.167 s 0.972 2.167 2.167 2.167 c 4.806 0 8.716 3.91 8.716 8.715 c 0 4.806 -3.91 8.716 -8.716 8.716 H 4.167 z" style="stroke: none; stroke-width: 1; stroke-dasharray: none; stroke-linecap: butt; stroke-linejoin: miter; stroke-miterlimit: 10; fill: rgb(0,0,0); fill-rule: nonzero; opacity: 1;" transform=" matrix(1 0 0 1 0 0) " stroke-linecap="round" />
	<path d="M 61.571 45.571 H 1.939 c -0.552 0 -1 -0.448 -1 -1 s 0.448 -1 1 -1 h 59.632 c 0.553 0 1 0.448 1 1 S 62.124 45.571 61.571 45.571 z" style="stroke: none; stroke-width: 1; stroke-dasharray: none; stroke-linecap: butt; stroke-linejoin: miter; stroke-miterlimit: 10; fill: rgb(0,0,0); fill-rule: nonzero; opacity: 1;" transform=" matrix(1 0 0 1 0 0) " stroke-linecap="round" />
	<path d="M 61.571 25.404 H 17.625 c -0.552 0 -1 -0.448 -1 -1 s 0.448 -1 1 -1 h 43.946 c 0.553 0 1 0.448 1 1 S 62.124 25.404 61.571 25.404 z" style="stroke: none; stroke-width: 1; stroke-dasharray: none; stroke-linecap: butt; stroke-linejoin: miter; stroke-miterlimit: 10; fill: rgb(0,0,0); fill-rule: nonzero; opacity: 1;" transform=" matrix(1 0 0 1 0 0) " stroke-linecap="round" />
	<path d="M 50.367 65.738 H 18.745 c -0.552 0 -1 -0.447 -1 -1 s 0.448 -1 1 -1 h 31.622 c 0.553 0 1 0.447 1 1 S 50.92 65.738 50.367 65.738 z" style="stroke: none; stroke-width: 1; stroke-dasharray: none; stroke-linecap: butt; stroke-linejoin: miter; stroke-miterlimit: 10; fill: rgb(0,0,0); fill-rule: nonzero; opacity: 1;" transform=" matrix(1 0 0 1 0 0) " stroke-linecap="round" />
</g>
</svg>