<svg xmlns="http://www.w3.org/2000/svg" xmlns:xlink="http://www.w3.org/1999/xlink" version="1.1" width="256" height="256" viewBox="0 0 256 256" xml:space="preserve">

<defs>
</defs>
<g style="stroke: none; stroke-width: 0; stroke-dasharray: none; stroke-linecap: butt; stroke-linejoin: miter; stroke-miterlimit: 10; fill: none; fill-rule: nonzero; opacity: 1;" transform="translate(1.4065934065934016 1.4065934065934016) scale(2.81 2.81)" >
	<ellipse cx="39.03" cy="22.727" rx="5.25" ry="14.577" style="stroke: none; stroke-width: 1; stroke-dasharray: none; stroke-linecap: butt; stroke-linejoin: miter; stroke-miterlimit: 10; fill: rgb(240,240,240); fill-rule: nonzero; opacity: 1;" transform=" matrix(1 0 0 1 0 0) "/>
	<path d="M 54.129 11.923 c 1.059 2.667 1.724 6.518 1.724 10.8 c 0 4.282 -0.665 8.133 -1.724 10.8 l 12.507 -3.129 c 0.498 -2.228 0.785 -4.856 0.785 -7.671 c 0 -2.814 -0.287 -5.442 -0.785 -7.67 L 54.129 11.923 z" style="stroke: none; stroke-width: 1; stroke-dasharray: none; stroke-linecap: butt; stroke-linejoin: miter; stroke-miterlimit: 10; fill: rgb(242,68,68); fill-rule: nonzero; opacity: 1;" transform=" matrix(1 0 0 1 0 0) " stroke-linecap="round" />
	<path d="M 39.035 37.3 c 2.9 0 5.25 -6.527 5.25 -14.577 s -2.351 -14.577 -5.25 -14.577 l 15.094 3.777 c 1.059 2.667 1.724 6.518 1.724 10.8 c 0 4.282 -0.665 8.133 -1.724 10.8 L 39.035 37.3 z" style="stroke: none; stroke-width: 1; stroke-dasharray: none; stroke-linecap: butt; stroke-linejoin: miter; stroke-miterlimit: 10; fill: rgb(249,249,249); fill-rule: nonzero; opacity: 1;" transform=" matrix(1 0 0 1 0 0) " stroke-linecap="round" />
	<path d="M 39.035 38.3 c -4.06 0 -6.25 -8.026 -6.25 -15.577 c 0 -7.552 2.19 -15.578 6.25 -15.578 s 6.25 8.026 6.25 15.578 C 45.286 30.274 43.095 38.3 39.035 38.3 z M 39.035 9.146 c -1.775 0 -4.25 5.166 -4.25 13.578 S 37.26 36.3 39.035 36.3 s 4.25 -5.165 4.25 -13.577 S 40.81 9.146 39.035 9.146 z" style="stroke: none; stroke-width: 1; stroke-dasharray: none; stroke-linecap: butt; stroke-linejoin: miter; stroke-miterlimit: 10; fill: rgb(0,0,0); fill-rule: nonzero; opacity: 1;" transform=" matrix(1 0 0 1 0 0) " stroke-linecap="round" />
	<path d="M 66.636 30.394 c 0.498 -2.228 0.785 -4.856 0.785 -7.671 c 0 -2.814 -0.287 -5.442 -0.785 -7.67 v 0 l 9.695 2.426 c 1.041 3.496 1.041 6.993 0 10.489 L 66.636 30.394" style="stroke: none; stroke-width: 1; stroke-dasharray: none; stroke-linecap: butt; stroke-linejoin: miter; stroke-miterlimit: 10; fill: rgb(249,249,249); fill-rule: nonzero; opacity: 1;" transform=" matrix(1 0 0 1 0 0) " stroke-linecap="round" />
	<path d="M 54.129 34.523 c -0.284 0 -0.561 -0.122 -0.753 -0.341 c -0.247 -0.282 -0.314 -0.679 -0.177 -1.028 c 1.052 -2.646 1.654 -6.448 1.654 -10.431 c 0 -3.983 -0.603 -7.785 -1.654 -10.431 c -0.138 -0.349 -0.07 -0.746 0.177 -1.028 s 0.631 -0.401 0.996 -0.312 l 12.507 3.129 c 0.366 0.092 0.65 0.383 0.732 0.752 c 0.529 2.369 0.81 5.097 0.81 7.889 c 0 2.792 -0.28 5.52 -0.81 7.889 c -0.082 0.369 -0.366 0.66 -0.732 0.752 l -12.507 3.129 C 54.291 34.513 54.21 34.523 54.129 34.523 z M 55.665 13.338 c 0.771 2.661 1.188 5.917 1.188 9.385 c 0 3.467 -0.417 6.724 -1.188 9.385 l 10.122 -2.533 c 0.415 -2.084 0.634 -4.439 0.634 -6.852 s -0.219 -4.768 -0.634 -6.853 L 55.665 13.338 z" style="stroke: none; stroke-width: 1; stroke-dasharray: none; stroke-linecap: butt; stroke-linejoin: miter; stroke-miterlimit: 10; fill: rgb(0,0,0); fill-rule: nonzero; opacity: 1;" transform=" matrix(1 0 0 1 0 0) " stroke-linecap="round" />
	<path d="M 39.035 38.3 c -0.505 0 -0.931 -0.376 -0.993 -0.878 c -0.062 -0.501 0.26 -0.97 0.75 -1.092 l 0.843 -0.211 c 1.685 -0.981 3.65 -5.899 3.65 -13.396 s -1.966 -12.415 -3.65 -13.396 l -0.843 -0.211 c -0.49 -0.123 -0.812 -0.591 -0.75 -1.092 c 0.062 -0.501 0.488 -0.878 0.993 -0.878 c 0.459 0 0.895 0.103 1.306 0.296 l 14.031 3.511 c 0.312 0.078 0.567 0.302 0.687 0.601 c 1.157 2.914 1.795 6.881 1.795 11.169 s -0.638 8.255 -1.795 11.169 c -0.119 0.299 -0.375 0.523 -0.687 0.601 l -14.031 3.511 C 39.93 38.198 39.495 38.3 39.035 38.3 z M 42.818 10.123 c 1.619 3.019 2.467 7.901 2.467 12.6 c 0 4.699 -0.848 9.581 -2.467 12.6 l 10.561 -2.643 c 0.94 -2.615 1.475 -6.206 1.475 -9.957 c 0 -3.751 -0.534 -7.342 -1.475 -9.957 L 42.818 10.123 z" style="stroke: none; stroke-width: 1; stroke-dasharray: none; stroke-linecap: butt; stroke-linejoin: miter; stroke-miterlimit: 10; fill: rgb(0,0,0); fill-rule: nonzero; opacity: 1;" transform=" matrix(1 0 0 1 0 0) " stroke-linecap="round" />
	<path d="M 66.636 31.394 c -0.258 0 -0.509 -0.1 -0.698 -0.284 c -0.248 -0.242 -0.354 -0.596 -0.277 -0.934 c 0.498 -2.227 0.761 -4.804 0.761 -7.452 s -0.263 -5.225 -0.761 -7.453 c -0.076 -0.339 0.029 -0.692 0.277 -0.934 c 0.249 -0.243 0.603 -0.339 0.941 -0.254 l 9.695 2.426 c 0.343 0.086 0.614 0.346 0.715 0.685 c 1.092 3.669 1.092 7.39 0.001 11.06 c -0.102 0.339 -0.373 0.599 -0.716 0.685 l -9.695 2.426 C 66.798 31.384 66.717 31.394 66.636 31.394 z M 67.917 16.404 c 0.331 1.972 0.504 4.125 0.504 6.319 s -0.173 4.348 -0.504 6.319 l 7.608 -1.903 c 0.775 -2.933 0.775 -5.898 0 -8.831 L 67.917 16.404 z" style="stroke: none; stroke-width: 1; stroke-dasharray: none; stroke-linecap: butt; stroke-linejoin: miter; stroke-miterlimit: 10; fill: rgb(0,0,0); fill-rule: nonzero; opacity: 1;" transform=" matrix(1 0 0 1 0 0) " stroke-linecap="round" />
	<path d="M 39.034 38.3 c -0.181 0 -0.364 -0.049 -0.529 -0.152 L 15.167 23.571 c -0.292 -0.183 -0.47 -0.503 -0.47 -0.848 s 0.178 -0.666 0.47 -0.848 L 38.505 7.297 c 0.469 -0.293 1.085 -0.15 1.378 0.318 s 0.15 1.085 -0.318 1.378 l -21.98 13.729 l 21.98 13.729 c 0.468 0.292 0.611 0.91 0.318 1.378 C 39.694 38.134 39.368 38.3 39.034 38.3 z" style="stroke: none; stroke-width: 1; stroke-dasharray: none; stroke-linecap: butt; stroke-linejoin: miter; stroke-miterlimit: 10; fill: rgb(0,0,0); fill-rule: nonzero; opacity: 1;" transform=" matrix(1 0 0 1 0 0) " stroke-linecap="round" />
	<path d="M 21.273 89 V 5.192 C 21.273 2.877 19.396 1 17.081 1 c -2.315 0 -4.192 1.877 -4.192 4.192 V 89 H 21.273 z" style="stroke: none; stroke-width: 1; stroke-dasharray: none; stroke-linecap: butt; stroke-linejoin: miter; stroke-miterlimit: 10; fill: rgb(255,190,0); fill-rule: nonzero; opacity: 1;" transform=" matrix(1 0 0 1 0 0) " stroke-linecap="round" />
	<path d="M 21.273 90 h -8.385 c -0.552 0 -1 -0.447 -1 -1 V 5.192 C 11.889 2.329 14.218 0 17.081 0 s 5.192 2.329 5.192 5.192 V 89 C 22.273 89.553 21.826 90 21.273 90 z M 13.889 88 h 6.385 V 5.192 c 0 -1.76 -1.432 -3.192 -3.192 -3.192 s -3.192 1.432 -3.192 3.192 V 88 z" style="stroke: none; stroke-width: 1; stroke-dasharray: none; stroke-linecap: butt; stroke-linejoin: miter; stroke-miterlimit: 10; fill: rgb(0,0,0); fill-rule: nonzero; opacity: 1;" transform=" matrix(1 0 0 1 0 0) " stroke-linecap="round" />
</g>
</svg>